<?xml version="1.0" encoding="UTF-8"?>
<svg width="163px" height="100px" viewBox="0 0 163 100" version="1.1" xmlns="http://www.w3.org/2000/svg" xmlns:xlink="http://www.w3.org/1999/xlink">
    <!-- Generator: Sketch 40.1 (33804) - http://www.bohemiancoding.com/sketch -->
    <title>illustration-5</title>
    <desc>Created with Sketch.</desc>
    <defs></defs>
    <g id="Menu-2-Columns" stroke="none" stroke-width="1" fill="none" fill-rule="evenodd" opacity="0.6">
        <g id="illustration-" transform="translate(-40.000000, -10.000000)" fill="#000D12">
            <g id="illustration-5" transform="translate(40.000000, 10.000000)">
                <path d="M36.1259665,17.6181572 C37.4370613,18.8786395 39.1814203,19.3485511 40.9596868,19.7858137 C43.3508023,20.3758267 45.7695463,20.869059 48.2058719,21.2690085 C53.0132197,22.0572473 57.8795918,22.464193 62.7597782,22.5224947 C63.164158,22.5271588 63.164158,21.944142 62.7597782,21.9394779 C58.1332711,21.8835082 53.5205782,21.5185397 48.9581189,20.800263 C46.8118918,20.4621132 44.6782231,20.0505034 42.5646478,19.5654334 C40.46991,19.0850275 38.1252605,18.7025685 36.5692773,17.2053813 C36.2879696,16.9348615 35.8446588,17.3476374 36.1259665,17.6181572" id="Fill-55"></path>
                <path d="M80.4792531,22.7249217 C80.0798693,22.7125778 80.0811096,23.3297735 80.4792531,23.3421174 C94.8719532,23.8148894 109.264653,22.2237588 123.203395,18.6242733 C123.589136,18.5242876 123.425413,17.929311 123.038433,18.0292967 C109.150544,21.6152038 94.8186193,23.1952249 80.4792531,22.7249217" id="Fill-56"></path>
                <path d="M37.8424426,62.7347769 C35.8578759,62.7360066 33.9670489,61.2640401 32.5424532,59.9826792 C31.1277248,58.7111559 29.240598,57.0571919 27.1968273,55.5544826 C26.1188216,54.7625474 24.9927126,53.9964362 23.9060729,53.2573787 C21.5884838,51.6808866 19.2141576,50.0588952 17.1506523,48.0778275 C17.1938219,47.5896314 17.3134633,47.137097 17.5206772,46.6919409 C17.685955,46.3353242 17.155586,46.0217473 16.9878414,46.3808235 C16.8114629,46.7632643 16.7029223,47.1530833 16.625217,47.5539697 C16.2823273,47.205961 15.9505384,46.8456551 15.6310836,46.4718223 C15.6742531,46.4361606 15.7198895,46.3992692 15.7346905,46.3242567 L16.0689463,44.6395499 C16.1454181,44.2521903 15.5509115,44.0874088 15.4732063,44.4759981 C15.3782332,44.960505 15.2820268,45.4450119 15.1858203,45.9307486 C14.9157022,45.5974963 14.6616184,45.2593253 14.4112349,44.9199245 C14.5913137,44.3112165 14.7713925,43.7025086 14.9514712,43.0938007 C15.0637121,42.7138193 14.4679721,42.5514972 14.3569646,42.9302488 C14.2212888,43.3864724 14.0868465,43.8414662 13.9524041,44.2976897 C13.6391164,43.8476147 13.350497,43.3913912 13.0717449,42.933938 C13.2308556,43.0655173 13.5688117,42.9929642 13.6070476,42.7089005 C13.6810525,42.1530702 13.8524974,41.643969 14.1152151,41.1483947 C14.3002275,40.7991562 13.7686251,40.4880388 13.5823793,40.838507 C13.2678581,41.4336881 13.0791454,42.0436257 12.9903395,42.7089005 C12.9792387,42.792521 13.0100741,42.8478581 13.0470766,42.8945871 C12.8003934,42.4887819 12.5796119,42.0780577 12.3600638,41.6673336 C12.6104473,41.0684633 12.8608308,40.4683634 13.1112143,39.8694931 C13.2641579,39.5042684 12.6671844,39.3456354 12.5167077,39.7059413 C12.3415625,40.1265032 12.165184,40.5482947 11.9888055,40.9688566 C11.842029,40.6688066 11.7137537,40.3675269 11.5817782,40.0662472 C11.6681173,40.0613284 11.7495228,40.0268964 11.8000928,39.9211411 C12.114614,39.2583258 12.4279017,38.5942807 12.7424228,37.9314654 C12.9114008,37.5748487 12.3797985,37.2625016 12.209587,37.620348 C11.9172674,38.2388937 11.6249477,38.8562096 11.3326281,39.4747553 C11.1994191,39.1451922 11.068677,38.8168588 10.9539693,38.4872957 C10.9909718,38.4614717 11.032908,38.4504043 11.0575763,38.3975267 C11.3646969,37.7310222 11.6718175,37.0645178 11.9801716,36.3980133 C12.144216,36.0401668 11.6126136,35.7278197 11.4473358,36.0868959 C11.1994191,36.6242805 10.9527359,37.1604354 10.7048192,37.6965902 C10.6209469,37.4162157 10.5235071,37.1370708 10.4519689,36.857926 C10.5161066,36.8382506 10.576544,36.7988997 10.6147799,36.7152793 C10.9033993,36.0918148 11.1907852,35.4671206 11.4794046,34.8436561 C11.643449,34.4858096 11.1118466,34.1734625 10.9465688,34.5325387 C10.7220871,35.0182753 10.4988387,35.5040119 10.274357,35.9897486 C10.2188533,35.717982 10.1485485,35.4449857 10.1078458,35.1756786 C10.1288139,35.1486249 10.1608827,35.1387872 10.1732169,35.1006661 C10.4396348,34.31242 10.8392616,33.6077945 11.3807313,32.975722 C11.6372819,32.6769017 11.2031194,32.2391239 10.9453354,32.5404036 C10.5555759,32.9953974 10.2533889,33.4934312 9.99190468,34.0148295 C9.95736902,33.5856596 9.93640095,33.1614087 9.93886778,32.7396171 L11.0267409,30.3908652 C11.1932521,30.0330188 10.6616497,29.7206716 10.4951385,30.0797478 C10.339728,30.4142298 10.1843176,30.7487117 10.0301406,31.0831937 C10.7122197,25.7167261 14.7713925,21.9993036 20.0393131,21.9993036 L20.1157849,21.9993036 C23.0685833,22.0189791 25.972045,23.0507083 28.4635458,24.0148033 C28.5992215,24.0676809 28.7373642,24.123018 28.8779736,24.1795848 C29.3540723,24.3677309 29.8647066,24.555877 30.3802746,24.7046723 C30.6220241,27.1714766 30.9316116,29.6198352 31.2757347,32.0349915 C31.2165307,31.9636682 31.1573268,31.8911151 31.0993562,31.8222512 C30.2162302,30.7856031 29.4330109,29.976452 28.6312904,29.2792047 C28.0195159,28.7455092 27.400341,28.3028125 26.7799326,27.9031558 C26.8329695,27.8797913 26.8860064,27.8527376 26.9193087,27.7826439 C27.2140952,27.15672 27.5680856,26.5713766 27.9973144,26.0278435 C28.2415309,25.7204152 27.8073683,25.2814077 27.5619185,25.5925251 C27.098154,26.1790982 26.7059277,26.7951844 26.3877063,27.4727563 C26.3568709,27.5354716 26.3704385,27.5920384 26.3790724,27.6486052 C26.0953867,27.4801345 25.8117009,27.3276501 25.5267818,27.1874628 C26.0559173,26.4705402 26.5850529,25.7536175 27.1141884,25.0366948 C27.3497709,24.7181991 26.8157017,24.4107709 26.5825861,24.7268071 C26.0423498,25.4572566 25.5033469,26.1877062 24.9631106,26.9181557 C24.6510563,26.784117 24.3377686,26.6759022 24.0244808,26.5762955 C24.5795181,25.9934115 25.1012532,25.3847036 25.5662511,24.7243477 C25.7944331,24.3997034 25.2603639,24.0922752 25.0334153,24.41446 C24.5388154,25.1166261 23.9788444,25.759766 23.3757039,26.368474 C23.1438217,26.3119072 22.9070058,26.2799346 22.6726567,26.2405838 C22.6775903,26.2368947 22.6837574,26.2368947 22.6899245,26.2332055 C23.3313009,25.7622255 23.867837,25.2150032 24.3205007,24.5620256 C24.5462159,24.2361516 24.0121467,23.9287234 23.7876649,24.2521379 C23.3979054,24.8141167 22.9304407,25.2973939 22.3778702,25.7019695 C22.2039585,25.8298597 22.2224598,26.0450595 22.3248333,26.1778685 C22.0090788,26.1372879 21.6920908,26.1213017 21.3751028,26.1126937 C21.4861103,25.9577498 21.5983512,25.8015763 21.7093586,25.6454027 C21.9412409,25.3232179 21.4059382,25.0157897 21.1777562,25.335515 C20.9878101,25.5999033 20.7978641,25.8655214 20.607918,26.1299097 C17.8771345,26.2897723 15.602715,27.6486052 14.4692055,29.8608589 C12.7522901,33.2142863 13.1408163,36.6464153 15.6557519,40.3540001 C17.7981958,43.5119031 21.1530879,46.3439321 23.8481023,48.6189012 C24.4648104,49.1378401 25.0469829,49.6297253 25.5847523,50.098246 C28.9149761,53.0028281 32.5264187,55.8078035 36.8470757,56.2099196 C36.9186139,56.3906875 36.9852183,56.5788335 37.0567565,56.7583716 C37.8621773,58.7591147 38.7070674,60.5938465 39.5926602,62.305607 C39.0339226,62.5835222 38.4480499,62.7347769 37.8424426,62.7347769 L37.8424426,62.7347769 Z M18.2385254,20.4019064 C19.3843691,20.0797216 20.5857165,19.9161698 21.8092653,19.9161698 C24.6461226,19.9161698 27.3892403,20.7609826 30.138525,21.8824809 C30.189095,22.5711202 30.2458322,23.2573001 30.3099698,23.9447096 C29.9325445,23.8180492 29.5588194,23.6704836 29.2085292,23.5253775 C29.0222833,23.4491353 28.8422045,23.3741228 28.6719931,23.308948 C27.3497709,22.794928 25.9239418,22.2673811 24.4574099,21.88617 C22.8761704,21.4742162 21.3701692,21.265165 19.9801091,21.265165 C19.2264918,21.265165 18.5061767,21.3487855 17.8031295,21.4692973 C21.6106853,20.3539476 25.6451897,20.6933484 29.2146962,22.5108643 C29.5674533,22.6904024 29.880741,22.160396 29.5267505,21.9796282 C25.5070471,19.9333858 20.901471,19.6345655 16.6585193,21.1790851 C16.382234,21.2799215 16.4019687,21.6328492 16.5832809,21.7521313 C14.6184489,22.3337856 12.8891993,23.5253775 11.5941123,25.2273003 C13.0914796,22.910521 15.4436043,21.1876931 18.2385254,20.4019064 L18.2385254,20.4019064 Z M14.6073481,31.5357281 C14.8379969,30.7105906 15.1845869,29.9789114 15.6372506,29.3579063 C16.7337577,27.8576564 18.5419458,26.9636551 20.6375199,26.8505215 C20.6757558,26.8554403 20.7139918,26.8529809 20.7534611,26.8443729 C20.8657019,26.8394541 20.9742426,26.8271569 21.0877169,26.8271569 C21.7525282,26.8271569 22.4198064,26.9095477 23.0772172,27.0620321 C23.1573893,27.1616389 23.2831977,27.1960708 23.4127064,27.148112 C25.6094207,27.7445228 27.7358302,29.1906653 29.9041759,31.5775383 C30.1360581,31.8320889 30.3679404,32.1136932 30.5911887,32.3854597 C30.8711742,32.7248605 31.1647273,33.056883 31.4681476,33.3753787 C31.6926294,34.8977634 31.9269785,36.4066213 32.1613276,37.8896552 C33.0086845,43.2339879 34.0410538,47.7925341 35.3324406,51.8985458 C31.3053367,50.8951 27.3608717,48.6631709 23.5927852,45.1916911 C21.5749163,43.3348244 19.7445266,41.2935008 18.3742012,39.7219276 L18.0781813,39.3825268 C16.1799538,37.2182319 14.0288759,34.7637247 14.645584,31.7816707 C14.6628518,31.6955907 14.6492843,31.6132 14.6073481,31.5357281 L14.6073481,31.5357281 Z M35.2658361,52.7925472 C30.9291448,52.6166982 27.098154,49.2608114 23.9726774,46.5615913 C20.7596281,43.7848994 17.8808347,40.6503609 15.3535649,37.2428261 C15.2289899,37.0731257 15.0180757,37.0866526 14.8848668,37.1825702 C14.7664588,36.8394803 14.6369501,36.5000795 14.5543112,36.1410033 C14.5074414,35.9430195 14.4679721,35.7364277 14.4309696,35.5052417 C14.7824932,36.2873391 15.2869604,37.1075577 15.9678062,37.9978699 C17.6871884,40.2507042 19.7531605,42.5330515 22.2865974,44.9752616 C26.5825861,49.1181647 31.0524864,51.6968729 35.5877578,52.7175347 C35.8948784,53.654576 36.2217337,54.5608745 36.5584563,55.4536461 C32.1119909,54.8965861 28.4512116,51.6710489 25.1949928,48.782453 C24.8743046,48.4983893 24.5560832,48.2167851 24.2415621,47.9400996 C23.7531293,47.5121595 23.2585294,47.0903679 22.7343275,46.6452118 C19.8876029,44.2202178 16.7362245,41.5123897 15.2154223,38.0544367 C17.8956357,41.5923211 20.9323064,44.8436823 24.3501027,47.685549 C27.4632452,50.2740949 31.0352186,53.2352439 35.2658361,53.4074037 C35.6629962,53.42339 35.6617627,52.8085334 35.2658361,52.7925472 L35.2658361,52.7925472 Z M38.5812589,22.9879929 C44.6780352,24.2681242 51.4359226,25.2063952 59.518499,25.8999533 C59.5234326,25.8999533 59.5246661,25.9061019 59.5308331,25.9061019 C73.8026921,27.4211083 88.1867918,27.5600659 102.485786,26.3205152 C102.728769,26.29961 102.804007,26.0647349 102.746037,25.8901156 C110.782977,25.1977872 117.510029,24.2619756 123.580903,22.9879929 C126.338822,22.4087981 129.676446,21.496351 131.221917,19.5669313 C130.871626,26.5283367 129.799788,33.5819705 128.900627,38.9644244 C127.668445,46.3439321 126.045269,52.2613112 123.790584,57.5859685 C121.810951,62.2625671 118.47826,69.0493532 112.422187,73.9595973 C105.543425,79.5375755 95.8648077,82.1347294 81.9629737,82.1347294 C81.6694206,82.1347294 81.3758676,82.1334996 81.0823145,82.1322699 L81.0810811,82.1322699 C80.787528,82.1334996 80.4927416,82.1347294 80.1991885,82.1347294 C77.7779925,82.1347294 75.4924723,82.0511089 73.3191929,81.8912462 C73.4388343,81.7018704 73.369763,81.399361 73.0873107,81.425185 C72.0401403,81.5198729 70.9917365,81.557994 69.9433327,81.5653722 C63.9353624,80.8410713 58.9313929,79.4096853 54.7427114,77.2207962 C54.8623528,77.1666888 54.984461,77.1052031 55.0942351,77.0633929 C55.4617931,76.925665 55.3026824,76.3304839 54.9301907,76.4706712 C54.6489718,76.5764265 54.3430846,76.7018573 54.0371974,76.8506525 C52.930823,76.2370258 51.8848861,75.5668322 50.891986,74.8413015 L51.039996,74.8044101 L50.7069736,74.6986548 C50.3801183,74.4564013 50.053263,74.2141479 49.7387419,73.9595973 C47.6888042,72.2957956 45.8522474,70.3503896 44.1192977,68.0016377 C43.1202305,66.9834353 42.4615863,65.9959758 42.1026622,64.9728546 C40.7557717,62.7507632 39.5346896,60.3343771 38.3703447,57.5859685 C36.1168933,52.2613112 34.4937176,46.3439321 33.2615348,38.9644244 C33.0185518,37.5121333 32.7780357,36.0020457 32.5424532,34.4612153 C32.4807823,34.3136497 32.4511804,34.1820705 32.4511804,34.046802 L32.4511804,33.84144 C31.6346588,28.3606091 31.1536265,23.8180492 30.9390121,19.5669313 C32.485716,21.496351 35.8221068,22.4087981 38.5812589,22.9879929 L38.5812589,22.9879929 Z M31.2806684,17.25876 C31.7074304,16.1593966 33.3676086,15.4363253 34.6861305,15.0231417 C35.304072,14.8288471 35.9466819,14.6480793 36.5880583,14.4673114 C36.5004858,14.5915125 36.4203137,14.7206323 36.3475422,14.854671 C33.3774759,15.8986974 32.4968168,16.9291969 32.4968168,17.7567938 C32.4968168,19.2373682 35.1634626,21.3573935 47.8664161,23.0580865 C53.7288433,23.8438732 60.9258269,24.4083114 68.5853415,24.7071317 C72.0549413,24.8977372 75.5294747,24.9825874 79.0015414,24.945696 C79.0385438,25.0563702 79.1137822,25.1535175 79.264259,25.1559769 C85.0477476,25.2740294 90.8250691,25.0711267 96.5789557,24.5767821 C103.111128,24.255827 109.204204,23.7405773 114.294513,23.0580865 C126.9987,21.3573935 129.665345,19.2373682 129.665345,17.7567938 C129.665345,17.0386414 129.004234,16.1692343 126.90126,15.2690843 C126.837122,15.1018434 126.75695,14.9456698 126.678011,14.7882665 C126.945663,14.8657385 127.215781,14.940751 127.476032,15.0231417 C128.794554,15.4363253 130.454732,16.1593966 130.881494,17.25876 C131.07144,17.7457263 131.002369,18.2769624 130.676747,18.8352521 C129.78622,20.3613259 127.372425,21.2110576 125.635775,21.7176994 C122.588003,22.6043224 119.263947,23.0765322 116.04843,23.5339855 C115.567398,23.6016197 115.090066,23.6704836 114.615201,23.7393476 C103.965885,25.2850968 92.9255769,26.0696537 81.7976959,26.0696537 L81.0810811,26.0696537 L80.3644663,26.0696537 C69.2365853,26.0696537 58.1950434,25.2850968 47.5469613,23.7393476 C47.0720961,23.6704836 46.5935306,23.6016197 46.1124982,23.5339855 C42.8982156,23.0765322 39.5729255,22.6043224 36.5263875,21.7176994 C34.7885041,21.2110576 32.375942,20.3613259 31.4854155,18.8352521 C31.1585602,18.2769624 31.0907223,17.7457263 31.2806684,17.25876 L31.2806684,17.25876 Z M40.1723658,12.2833411 C41.4958214,11.4065558 42.8772475,10.6146206 44.3030767,9.91491388 C47.2879439,8.44663654 50.4750914,7.38785364 53.7448777,6.76561885 C56.6273714,6.21716685 59.18671,6.17166747 61.7423484,4.61362108 C64.6766456,2.82561836 67.9859012,2.84037492 71.3124247,2.98179191 C74.2960585,3.10968207 77.1612844,3.09615522 80.0980484,2.50466327 C83.466508,1.82586168 86.7819308,0.72649825 90.2391964,0.594918957 C93.9616465,0.453501961 97.5792562,1.53810884 101.095726,2.62394543 C102.706567,3.12074948 104.168166,3.66182321 105.468186,4.76979463 C106.503022,5.65272858 107.434252,6.53689223 108.652867,7.17388357 C111.791911,8.81678016 115.485993,9.58781021 118.854452,10.6367554 C121.84302,11.5676482 125.796119,12.7186595 126.543569,16.2135039 C126.613874,16.5442967 127.035702,16.4594465 127.11094,16.1901394 C128.171678,16.7115377 128.741517,17.2403143 128.741517,17.7567938 C128.741517,19.2865567 123.842387,20.9233048 115.637703,22.1345721 C113.881318,22.3952712 112.001592,22.6313761 110.020726,22.8441165 C110.324146,22.726064 110.174903,22.2218817 109.809811,22.2833674 C106.227971,22.8920753 102.628862,23.3618257 99.0198864,23.7270504 C97.6988976,23.8020629 96.354474,23.8696971 94.985382,23.9274936 C95.2604338,23.7909955 95.2443994,23.3237046 94.8916423,23.3630554 C91.2320964,23.7774687 87.5602164,24.0467758 83.8871029,24.2017196 C82.9558737,24.2090979 82.0209442,24.2127871 81.0810811,24.2127871 C75.0718773,24.2127871 69.262487,24.0590729 63.8564238,23.7664012 C62.4860984,23.6483488 61.1145396,23.5143101 59.746681,23.3593662 C59.6159389,23.3446097 59.5456341,23.4110142 59.5024646,23.4946347 C54.7229768,23.1540042 50.3369488,22.6990103 46.5232258,22.1345721 C38.3185412,20.9233048 33.4194121,19.2865567 33.4194121,17.7567938 C33.4194121,17.1025864 34.3333735,16.4299334 36.0046524,15.7769558 C35.9873846,15.8581169 35.9627163,15.9343591 35.9516155,16.0192093 C35.8961118,16.4053392 36.489385,16.5725801 36.5461222,16.1827611 C36.8113066,14.3246647 38.7305023,13.2388281 40.1723658,12.2833411 L40.1723658,12.2833411 Z M47.9095857,95.1204988 C48.1353008,94.6556672 48.464623,94.3297933 48.956756,94.1514849 C49.089965,94.1035261 49.1356014,93.9940816 49.1467021,93.8834075 C49.4340881,93.906772 49.7288746,93.9276771 50.0187274,93.9522714 C49.9854251,94.0444999 49.987892,94.1477958 50.0433957,94.2387945 C49.7214741,94.4318595 49.41312,94.6458295 49.1294343,94.9040693 C48.8358812,95.170917 49.273744,95.6050057 49.5660636,95.338158 C49.9693907,94.9704738 50.3973861,94.6950181 50.8944529,94.4699806 C50.9043202,94.4662914 50.9030868,94.4564537 50.9117207,94.4515349 C51.2139077,94.4822777 51.5160946,94.5056423 51.819515,94.5351554 C51.6271021,94.6642752 51.4346892,94.7921654 51.2435097,94.9212853 C51.14977,94.9348121 51.0806987,94.9803115 51.0387626,95.0577834 C50.9277551,95.1315662 50.8179811,95.205349 50.708207,95.277902 C50.3801183,95.4980207 50.6884724,96.0304864 51.0202613,95.8091381 C51.1485366,95.7230581 51.2780453,95.6369782 51.407554,95.5496686 C51.709741,95.6320594 52.0143948,95.7033827 52.3178152,95.7833141 C52.2092745,96.0378647 52.5459972,96.3354552 52.8050146,96.1079583 C52.8666854,96.0538509 52.9357567,96.010811 52.9986609,95.9567036 C53.3822534,96.0538509 53.7646124,96.1583766 54.1482048,96.250605 C54.2000083,96.4485888 54.4565589,96.6023029 54.6588391,96.4190757 C54.6724067,96.4067786 54.6896745,96.3981706 54.7044755,96.3846437 C55.8700538,96.6600995 57.0405658,96.9109609 58.2147781,97.1446064 C58.3023506,97.2454429 58.4429601,97.2774154 58.5798692,97.2122406 C64.9134615,98.4493319 71.3506606,99.0937015 77.8211621,99.1146066 C78.2183221,99.1170661 78.2183221,98.5022096 77.8211621,98.4997501 C74.0469085,98.487453 70.2862225,98.2525778 66.5489714,97.8221783 C66.782087,97.3450496 67.1101757,96.9367849 67.5505053,96.6281269 C67.8724269,96.4018597 67.5653063,95.869394 67.2396844,96.0968909 C66.6242097,96.5285202 66.1949809,97.064675 65.8964942,97.7447063 C65.0910734,97.6463293 64.2856526,97.5418037 63.4826987,97.4237512 C63.7515834,97.0449996 64.0574706,96.7129771 64.4373628,96.4326026 C64.7531174,96.2001868 64.4459967,95.6652616 64.1265419,95.9013665 C63.6011066,96.2874964 63.1731112,96.735112 62.8191207,97.2823342 C62.8104868,97.2946314 62.8104868,97.3069285 62.8043198,97.3204553 C62.307253,97.2442131 61.8101863,97.1765789 61.314353,97.0929584 C61.7448152,96.5752493 62.2209139,96.1018098 62.7697841,95.7033827 C62.8635237,95.6345188 62.8980594,95.5410606 62.8980594,95.4476024 C69.4388655,95.878002 75.9907724,96.1313229 82.5488464,96.1596063 C82.9460064,96.160836 82.9472398,95.5459795 82.5488464,95.5447498 C74.7425552,95.5115475 66.9411977,95.1844438 59.1608083,94.5806548 C59.1595749,94.5769656 59.1608083,94.5720468 59.1595749,94.5683576 C66.112342,94.9471092 73.4524019,95.1524713 81.0810811,95.1524713 C86.1232865,95.1524713 91.0359833,95.0602428 95.8006701,94.8905424 L95.2801684,96.366198 C94.7066299,96.4030894 94.1343248,96.4473591 93.5607862,96.4744128 L94.0997891,95.6738696 C94.321804,95.3443065 93.7877348,95.0356486 93.5669533,95.3627522 L92.8047021,96.4965476 C91.9067751,96.5309796 91.0088481,96.5666413 90.1096877,96.5752493 C90.4192752,96.3821843 90.1257221,95.8902991 89.7828324,96.0649184 C89.6459232,96.1337823 89.509014,96.2038759 89.3733382,96.2727399 C89.2388959,96.3403741 89.2203946,96.4571968 89.2438295,96.567871 C88.3150671,96.5691007 87.3875381,96.5703304 86.4587757,96.5445064 C86.0616157,96.533439 86.0616157,97.1482955 86.4587757,97.1593629 C88.5000796,97.2147 90.5389165,97.1913355 92.5740533,97.1187824 C92.6801271,97.2872531 92.9662796,97.3573467 93.115523,97.1372281 L93.1389579,97.1015664 C93.7791009,97.0757425 94.4167771,97.0376214 95.0556867,96.9982705 L95.021151,97.099107 C94.8879421,97.4729398 95.4836821,97.6340322 95.6156576,97.2626588 L95.7241983,96.9527712 C96.3890096,96.9072718 97.0550544,96.867921 97.7186323,96.8088947 C97.7124652,96.8371781 97.7062981,96.8642318 97.700131,96.8925152 C97.6125585,97.2774154 98.2070651,97.4421969 98.2946376,97.056067 C98.3180725,96.9503117 98.3427409,96.8457861 98.3661758,96.7400308 C98.7596356,96.7031394 99.1518619,96.6588697 99.5453217,96.6158298 C99.4873511,96.8470158 99.4293805,97.0782019 99.37141,97.3106176 C99.2764369,97.6942881 99.8709436,97.8578399 99.96715,97.4729398 C100.043622,97.1642818 100.120094,96.8556238 100.197799,96.5469659 C100.544389,96.5063853 100.892212,96.4756425 101.237569,96.4326026 C101.227701,96.5445064 101.216601,96.6564103 101.2055,96.7670845 C101.168497,97.1618224 101.785206,97.1593629 101.822208,96.7670845 C101.835776,96.6256675 101.849343,96.4842505 101.862911,96.3416038 C102.184832,96.2997935 102.505521,96.2493753 102.826209,96.2026462 C102.912548,96.4744128 103.333143,96.5604927 103.388647,96.2260108 C103.39358,96.1903491 103.387413,96.1571468 103.39358,96.1214852 C103.673566,96.0796749 103.954785,96.0440132 104.23477,95.9997436 C104.240937,96.1854302 104.228603,96.3674278 104.252038,96.5555739 C104.300141,96.9429335 104.918083,96.9478523 104.868746,96.5555739 C104.841611,96.3366849 104.849011,96.1239446 104.844078,95.9087448 C105.121596,95.8620157 105.397882,95.8042192 105.6754,95.7562604 L105.6754,96.3526712 C105.6754,96.7486388 106.292108,96.7486388 106.292108,96.3526712 L106.292108,95.6431268 C106.454919,95.6136137 106.61773,95.5841006 106.779308,95.5533577 C106.753406,95.7242879 106.727504,95.8939883 106.702836,96.0636886 C106.643632,96.4510482 107.238139,96.6182892 107.297343,96.2272405 C107.336812,95.9640819 107.377515,95.7009233 107.416984,95.436535 C107.671068,95.3885762 107.925151,95.3479957 108.179235,95.2975774 C108.145933,95.5041692 108.129898,95.7144502 108.147166,95.9419471 C108.178002,96.3342255 108.79471,96.3379147 108.763874,95.9419471 C108.742906,95.6652616 108.776209,95.4119408 108.844046,95.1561604 C109.503924,95.0196623 110.161335,94.8684076 110.817512,94.7171529 C110.817512,95.0159732 111.289911,95.1266473 111.404618,94.789706 C111.429287,94.7159232 111.455189,94.6421404 111.479857,94.5695873 C112.568963,94.3101179 113.653136,94.0235948 114.734842,93.7284636 C116.265512,93.5919655 117.772746,93.4468594 119.247912,93.2919155 C111.135734,96.9785951 96.648027,99.2412671 80.7899949,99.2412671 C68.0907416,99.2412671 56.1512727,97.7606926 47.7430745,95.2606861 C47.8084455,95.2422404 47.8701163,95.2028895 47.9095857,95.1204988 L47.9095857,95.1204988 Z M46.3295795,94.7257609 L47.2546417,93.8034761 C47.2817768,93.7764224 47.2756097,93.7456796 47.2891773,93.7161665 C47.6221997,93.7469093 47.9539886,93.7764224 48.2882444,93.8059356 C47.8997183,94.0457296 47.5888974,94.374063 47.3767499,94.8093814 C47.3039783,94.9606361 47.3693494,95.0909857 47.4680227,95.1782953 C47.0350936,95.0479457 46.6120318,94.913907 46.197604,94.7774088 C46.2432404,94.7651117 46.2888768,94.7663414 46.3295795,94.7257609 L46.3295795,94.7257609 Z M45.8769158,94.6691941 C44.5300253,94.2129706 43.2953756,93.7296934 42.1840676,93.216903 C43.6061965,93.3706172 45.0628611,93.5120341 46.5380268,93.6485323 L45.8941836,94.2904425 C45.770842,94.4134138 45.7979771,94.5597496 45.8769158,94.6691941 L45.8769158,94.6691941 Z M104.976053,94.4576835 C105.222736,94.4429269 105.470653,94.4281703 105.716103,94.4134138 C105.703769,94.446616 105.6754,94.4662914 105.6754,94.5081017 L105.6754,95.1303365 C105.401582,95.1782953 105.127763,95.2360918 104.853945,95.2815912 C104.876147,95.0073652 104.915616,94.7331392 104.976053,94.4576835 L104.976053,94.4576835 Z M104.350711,94.4921154 C104.291507,94.7884763 104.232303,95.0848371 104.213802,95.3811979 C103.951084,95.4230082 103.6859,95.4562104 103.421949,95.4955612 C103.413315,95.179525 103.366445,94.8659482 103.270239,94.5536011 C103.630396,94.5326959 103.991787,94.5130205 104.350711,94.4921154 L104.350711,94.4921154 Z M100.66033,94.6888695 C100.91688,94.6765724 101.178365,94.6667347 101.433682,94.6544375 C101.426281,94.6778021 101.402846,94.6888695 101.40038,94.7171529 C101.365844,95.0786885 101.331308,95.4402242 101.298006,95.8017598 C100.983485,95.8423403 100.670197,95.8743128 100.355676,95.9112042 C100.456816,95.5041692 100.55919,95.0971342 100.66033,94.6888695 L100.66033,94.6888695 Z M98.8126724,94.7737197 C99.2159995,94.755274 99.6168598,94.7368283 100.01772,94.7183826 C99.9128797,95.1389445 99.8080393,95.5595063 99.7031989,95.9800682 C99.3060389,96.0243378 98.9076455,96.0673778 98.5104855,96.1067286 C98.6103922,95.6615725 98.7115323,95.2176461 98.8126724,94.7737197 L98.8126724,94.7737197 Z M96.4038106,94.8696373 C96.9958504,94.8475025 97.5878902,94.8265974 98.1737629,94.8020031 C98.0701559,95.2594563 97.9665489,95.7169096 97.862942,96.1743628 C97.2252658,96.233389 96.5863562,96.2751993 95.9474466,96.3206987 L96.4149113,94.9999869 C96.4334126,94.9483389 96.4112111,94.9126773 96.4038106,94.8696373 L96.4038106,94.8696373 Z M58.2357461,94.5167097 C58.3233187,94.5216285 58.4108912,94.5265474 58.4984638,94.5314662 C58.4959969,94.5326959 58.4947635,94.5339257 58.4922967,94.5363851 C58.407191,94.5290068 58.3208518,94.5228582 58.2357461,94.5167097 L58.2357461,94.5167097 Z M56.8740546,95.0049057 C57.1700745,95.0295 57.464861,95.0627023 57.7596475,95.0872965 C57.3193179,95.419319 56.8777549,95.7513415 56.4374253,96.0821343 C56.4189241,96.0956612 56.4090567,96.1141069 56.3954892,96.1288634 C56.0451989,96.0513915 55.6936753,95.9776087 55.3433851,95.8964477 C55.8219506,95.5472092 56.3251844,95.2397809 56.8740546,95.0049057 L56.8740546,95.0049057 Z M52.0933334,95.0909857 C52.3252157,94.9360418 52.5570979,94.781098 52.7889802,94.6261541 C53.0664988,94.6532078 53.3440175,94.6765724 53.6215361,94.7023963 C53.3588185,94.8819344 53.1121352,95.0885262 52.8629851,95.2877397 C52.6064346,95.2213352 52.349884,95.1586199 52.0933334,95.0909857 L52.0933334,95.0909857 Z M53.6141356,95.479575 C53.9483914,95.2348621 54.2962148,95.0085949 54.6551389,94.798314 C55.0214635,94.8327459 55.3865547,94.8684076 55.7528793,94.9003801 C55.3359846,95.1389445 54.9425249,95.4156299 54.5675663,95.7230581 C54.249345,95.6468159 53.932357,95.5595063 53.6141356,95.479575 L53.6141356,95.479575 Z M58.4540608,96.5641818 C58.0235985,96.4793316 57.5943697,96.3895626 57.1663743,96.2985638 C57.6696081,95.9210419 58.1728419,95.5422903 58.6760757,95.1635387 C59.1904103,95.2041193 59.7072117,95.2287135 60.2227796,95.2680643 C59.598671,95.6517348 59.0066313,96.0809046 58.4540608,96.5641818 L58.4540608,96.5641818 Z M59.2446806,96.7117474 C59.7738161,96.285037 60.3226863,95.8890694 60.9184264,95.5508983 C61.0183331,95.4943315 61.0528687,95.410711 61.0578024,95.3234014 C61.4352278,95.3504551 61.8126531,95.3750494 62.1888451,95.3996436 C61.6029724,95.860786 61.0800039,96.3772655 60.6199397,96.9675277 C60.1611088,96.8875964 59.702278,96.7978273 59.2446806,96.7117474 L59.2446806,96.7117474 Z M102.807708,95.5841006 C102.512921,95.6271405 102.218135,95.6726399 101.923348,95.7119907 C101.954184,95.3799682 101.986252,95.0491754 102.017088,94.7171529 C102.020788,94.6765724 101.994886,94.656897 101.986252,94.6249244 C102.207034,94.613857 102.422882,94.6003302 102.64243,94.588033 C102.760838,94.9200555 102.804007,95.2483889 102.807708,95.5841006 L102.807708,95.5841006 Z M106.236605,94.3789818 C106.499322,94.3617658 106.757106,94.3433201 107.01859,94.3261042 C106.993922,94.3593064 106.958153,94.3777521 106.950753,94.4306298 C106.926084,94.5904925 106.901416,94.7503552 106.877981,94.9102178 C106.683101,94.9471092 106.486988,94.9815412 106.292108,95.0172029 L106.292108,94.5081017 C106.292108,94.4503052 106.258806,94.4195624 106.236605,94.3789818 L106.236605,94.3789818 Z M107.410817,94.3002802 C108.624498,94.2191191 109.824612,94.1318095 111.009925,94.039581 C111.009925,94.0420405 111.009925,94.0432702 111.008692,94.0444999 C110.28961,94.2117409 109.569295,94.374063 108.847747,94.5253177 C108.714538,94.3814412 108.488823,94.3347122 108.392616,94.5585199 C108.381515,94.5831142 108.379049,94.6077084 108.369181,94.6323027 C108.085495,94.6900992 107.799343,94.738058 107.514424,94.7933951 C107.525525,94.7269906 107.535392,94.6605861 107.545259,94.5941816 C107.564994,94.4601429 107.497156,94.3679144 107.410817,94.3002802 L107.410817,94.3002802 Z M81.0810811,94.3925087 C59.6763763,94.3925087 39.529756,92.7668281 24.353803,89.8155168 C16.9804409,88.3804417 11.1907852,86.7117212 7.14641349,84.8548545 C3.08847418,82.993069 0.994133461,81.0242985 0.884359419,79.0051097 C3.44863171,82.6364523 11.8395622,85.9505288 24.9717445,88.4640622 C39.9885868,91.3391313 59.9119588,92.9217719 81.0724472,92.9217719 C122.311718,92.9217719 155.576953,87.0585003 161.271636,79.0567577 C161.127326,81.0587305 159.037919,83.0090553 155.015749,84.8548545 C150.971377,86.7117212 145.181721,88.3804417 137.808359,89.8155168 C122.632406,92.7668281 102.487019,94.3925087 81.0810811,94.3925087 L81.0810811,94.3925087 Z M16.9989421,78.4419012 C16.9989421,85.7058159 45.1467334,91.3969278 81.0810811,91.3969278 C117.014195,91.3969278 145.16322,85.7058159 145.16322,78.4419012 C145.16322,76.1386487 142.448471,73.9866509 137.095445,72.041245 C132.666247,70.4340101 126.506567,69.0333669 119.144305,67.9512195 C119.735112,67.1297712 120.30125,66.2542155 120.85382,65.3491467 C132.329524,66.6280483 142.051311,68.4381858 149.111385,70.6246156 C156.025917,72.7667756 160.107291,75.1868508 161.071822,77.6856277 C158.199196,85.7574639 123.38109,92.1618093 81.0724472,92.1618093 C39.1140947,92.1618093 4.07397373,85.7500856 1.08293943,77.7114517 C3.01940287,72.5921564 18.0399454,67.9413818 41.3071087,65.3491467 C41.862146,66.2579047 42.4307509,67.1371495 43.0252575,67.9610572 C26.4814459,70.3897404 16.9989421,74.1944724 16.9989421,78.4419012 L16.9989421,78.4419012 Z M42.1988686,78.9153407 C42.1988686,83.7112214 61.9680636,86.5764528 81.0810811,86.5764528 C100.192865,86.5764528 119.96206,83.7112214 119.96206,78.9153407 C119.96206,77.2380121 117.617336,75.7488297 113.045062,74.4785361 C113.595166,74.0395286 114.131702,73.5906834 114.632469,73.120933 C116.061998,71.7805458 117.378053,70.2889039 118.61517,68.6496965 C134.764288,70.9566381 144.298595,74.5596972 144.298595,78.4419012 C144.298595,81.6772761 137.726954,84.7318832 125.793652,87.0437437 C113.831982,89.360523 97.9529814,90.6369651 81.0810811,90.6369651 C64.2091808,90.6369651 48.3301806,89.360523 36.3685102,87.0437437 C24.4352084,84.7318832 17.8623335,81.6772761 17.8623335,78.4419012 C17.8623335,74.6039669 27.4558447,70.9652461 43.5519262,68.6570747 C44.7878092,70.2938228 46.1013975,71.7817755 47.5284601,73.120933 C48.029227,73.5906834 48.5657631,74.0395286 49.1171001,74.4785361 C44.5435928,75.7488297 42.1988686,77.2380121 42.1988686,78.9153407 L42.1988686,78.9153407 Z M47.4877573,78.9239487 C48.8198468,77.9278811 50.2777448,77.1949722 51.8565175,76.7006276 C50.3048799,77.67579 48.7384413,79.2547415 49.9089533,81.1595669 C50.2728111,81.7510589 50.7587771,82.1593236 51.3113476,82.4642924 C51.923122,83.0139742 52.7125084,83.3423075 53.5302633,83.5771827 C47.0128921,82.2872138 43.1214639,80.5447104 43.1214639,78.9153407 C43.1214639,77.6290609 45.6067976,76.2542417 49.9373219,75.0946224 C50.2271747,75.3085924 50.5207278,75.5201031 50.8216813,75.7254651 C48.8556159,75.8226125 47.0708626,76.5481431 45.5993971,77.8590172 C45.3033772,78.1234055 45.74124,78.5562645 46.0360264,78.2931059 C47.4014182,77.0769197 49.0615964,76.4079559 50.8907526,76.3317137 C51.1041336,76.3231057 51.1929396,76.1423379 51.1756718,75.9775563 C51.2768119,76.0439608 51.3767186,76.1103653 51.4790922,76.1755401 C49.9323882,76.6821819 48.4892913,77.4114017 47.1769364,78.3927127 C46.8624153,78.6275879 47.1695359,79.1612833 47.4877573,78.9239487 L47.4877573,78.9239487 Z M51.3088807,78.0041234 C51.2274753,77.9930559 51.1399027,78.0090422 51.0609641,78.0729873 C50.7612439,78.3164705 50.5503298,78.614061 50.4072535,78.9374755 C50.3751847,78.9768263 50.3431158,79.0174069 50.311047,79.0579874 C50.6243347,78.2291608 51.4556572,77.6721008 52.210508,77.2035802 C52.5176286,77.011745 52.2808127,76.5776563 51.9810926,76.660047 C52.0489304,76.6391419 52.1130681,76.6145476 52.180906,76.5948722 C52.3930536,76.7239921 52.6052012,76.8518823 52.8222824,76.977313 C52.2721788,77.2638361 51.7677115,77.6081558 51.3088807,78.0041234 L51.3088807,78.0041234 Z M110.057728,76.9035302 C109.724706,76.9711644 109.39785,77.0572443 109.069762,77.1371757 C109.426219,76.9367325 109.770342,76.7264515 110.114465,76.5149409 C110.093497,76.642831 110.077463,76.7744103 110.057728,76.9035302 L110.057728,76.9035302 Z M111.942388,78.3287676 C112.01886,78.3041733 112.091631,78.2709711 112.168103,78.2451471 C112.543062,78.1234055 112.387651,77.5368324 112.005292,77.6524254 C111.821513,77.7077625 111.638968,77.7630996 111.456422,77.8184367 C111.381184,77.7717076 111.304712,77.7286676 111.219606,77.6979248 L111.313346,77.6573443 C111.418186,77.6118449 111.450255,77.5269947 111.453955,77.4359959 C111.864683,77.5097787 112.248275,77.6487363 112.597332,77.8430309 C112.805779,78.4406715 112.779878,79.1403782 112.47029,79.6900599 C112.163169,80.2311336 111.687071,80.6148041 111.144368,80.8853409 C111.494658,80.5840613 111.795611,80.2569576 111.97939,79.8831248 C112.238408,79.3592671 112.190305,78.7751534 111.942388,78.3287676 L111.942388,78.3287676 Z M99.6341276,82.4569142 C100.36061,82.2749166 101.079691,82.0670951 101.774105,81.8076257 C102.558557,81.6588304 103.33931,81.5038866 104.120062,81.3489427 C104.190367,81.4190364 104.27794,81.4657655 104.391414,81.425185 C104.445684,81.4055095 104.499955,81.390753 104.554225,81.3710776 C104.462952,81.4264147 104.370446,81.4768329 104.27794,81.5284808 C104.116362,81.5875071 103.956018,81.6465333 103.79444,81.7055595 C103.77964,81.7117081 103.774706,81.7276944 103.761138,81.7350726 C102.389579,82.0006906 101.013087,82.2404847 99.6341276,82.4569142 L99.6341276,82.4569142 Z M59.6837768,82.4396982 C60.2400475,82.6499791 60.8061855,82.8332064 61.3760238,83.001677 C61.26995,82.9906096 61.1651096,82.9832313 61.0590358,82.9721639 C58.4503605,82.6807219 55.8453855,82.3277943 53.4920274,81.1312835 C55.3779208,81.8801788 57.6350724,82.1322699 59.6837768,82.4396982 L59.6837768,82.4396982 Z M55.0066625,80.1315269 C55.1892081,80.2053096 55.3692869,80.2926193 55.5518325,80.3627129 C56.1019361,80.7193297 56.6594402,81.0550413 57.2305119,81.3538616 C56.199376,81.1620264 55.0942351,81.0341362 54.1112023,80.6910463 C52.8555846,80.2520387 52.5102281,79.6876005 52.63727,79.1293108 C53.2342434,79.4010773 53.8386174,79.6408714 54.439291,79.8917328 C54.4306571,79.9163271 54.4232566,79.9409213 54.4146227,79.9655156 C54.2863474,80.3393484 54.8771538,80.4992111 55.0066625,80.1315269 L55.0066625,80.1315269 Z M112.228541,75.0921629 C112.671337,75.2102154 113.091932,75.3282678 113.480458,75.4450906 C113.279411,75.4266449 113.075897,75.4241855 112.869917,75.4438609 C112.478924,75.481982 112.47399,76.0968385 112.869917,76.0587174 C114.178572,75.9320569 115.408287,76.728911 115.782013,77.9967451 C115.89302,78.3754967 116.48876,78.2131746 116.376519,77.8331932 C116.126136,76.9822318 115.541496,76.2935926 114.801447,75.8730307 C118.405489,77.1420945 119.039465,78.2795791 119.039465,78.9153407 C119.039465,80.5471699 115.139403,82.2921326 108.607231,83.5821016 C101.386812,85.0085687 91.6107552,85.7943553 81.0810811,85.7943553 C71.4986706,85.7943553 62.5625702,85.1376885 55.5863681,83.9460966 C55.6751741,83.8907595 55.7343781,83.7973014 55.7479456,83.6964649 C56.0279311,83.7727071 56.3005161,83.8563276 56.5570667,83.9596235 C56.9258581,84.1084187 57.0849688,83.5132376 56.721111,83.3669018 C55.1559059,82.7385184 53.321816,82.8295172 51.8281489,82.0388117 C51.7418098,81.9933124 51.6678048,81.9342861 51.5851659,81.8838679 C50.9030868,81.1866206 50.5910325,80.0970949 50.9573571,79.2301472 C51.4470233,78.6620198 52.018095,78.1824317 52.6570046,77.7876939 C52.3548177,78.0889736 52.1143015,78.4345229 52.0045275,78.8440173 C51.7615445,79.7441673 52.2549109,80.4660088 52.9801597,80.8939489 C52.6607049,80.7881936 52.4016875,81.2481063 52.7273094,81.4313335 C57.0553668,83.8772327 62.7685507,83.8317333 67.6010754,84.1403913 C67.8440584,84.1563776 68.0882748,84.1662153 68.3324912,84.1809718 C68.8110567,84.2141741 69.2896222,84.2436872 69.7706545,84.2609032 C74.8375283,84.565872 79.9142694,84.814274 84.9873102,84.9274076 C90.7855998,85.0577572 96.603624,84.9507722 102.364911,84.2350792 C106.716403,83.6952352 111.495891,83.1000541 114.901353,80.0847978 C115.198607,79.8216392 114.761977,79.3875505 114.465958,79.6494794 C110.673203,83.0078256 104.795974,83.4185497 99.981951,83.8821516 C94.8003695,84.3801853 89.5854858,84.4293738 84.3854031,84.2990243 C83.6478202,84.2805786 82.9114707,84.2412278 82.1738878,84.2178632 C83.0471465,84.1834312 83.9204052,84.1403913 84.7948973,84.0825948 C85.9210063,84.0407845 87.0471153,83.9805286 88.1719908,83.9092052 C90.6856931,84.0543114 93.2067958,84.0420142 95.7130975,83.8452602 C95.7612008,83.8870704 95.8179379,83.9215024 95.9030436,83.9165835 C97.4670154,83.8366522 99.1370609,83.7112214 100.744202,83.3964149 C100.791072,83.5366022 100.921814,83.6571141 101.10806,83.6214524 C103.018622,83.2599168 105.200535,82.727451 107.009957,81.7584372 C107.731505,81.6059528 108.45182,81.4460901 109.167201,81.2517954 C109.438553,81.1780126 109.428686,80.8804221 109.269575,80.735316 C109.586563,80.5324133 109.867782,80.3012273 110.109531,80.0417578 C110.28591,79.9778127 110.463522,79.9126379 110.6399,79.8474632 C110.918653,79.745397 110.890284,79.4650224 110.706505,79.3395917 C110.712672,79.295322 110.73364,79.2572009 110.711439,79.2030935 C110.701571,79.1784993 110.699104,79.153905 110.689237,79.1293108 C110.722539,79.0542983 110.748441,78.9842046 110.797778,78.8981247 C110.806412,78.8452471 110.812579,78.7935991 110.821213,78.7419512 C110.876716,78.7222758 110.930987,78.7001409 110.98649,78.6804655 C111.365149,79.60398 111.17767,80.2581873 110.357448,80.6098852 C109.010558,81.4731438 107.472488,82.0658654 105.901115,82.34624 C105.511356,82.4163336 105.676634,83.0090553 106.06516,82.9389617 C106.938418,82.7827881 108.153333,82.4802787 109.273275,82.0043798 C110.956888,81.8592736 112.955023,81.0169202 113.316414,79.1735804 C113.366984,78.9214893 113.368217,78.6693981 113.348482,78.4197664 C113.473057,78.5451971 113.595166,78.6706278 113.702473,78.8181934 C113.931888,79.136689 114.467191,78.8292608 114.234075,78.5083057 C113.912154,78.0619199 113.523628,77.6917762 113.079598,77.4077125 C112.714506,76.6502093 112.025027,76.0710145 111.122166,75.978786 C110.727473,75.9382055 110.72994,76.553062 111.122166,76.5936425 C111.451488,76.6268448 111.729007,76.7559646 111.963356,76.9367325 C111.83138,76.9010708 111.704339,76.853112 111.566196,76.8297474 C111.357749,76.7953155 111.223306,76.9502593 111.194938,77.1125814 C111.155468,77.1052031 111.119699,77.084298 111.075296,77.0953654 C110.938387,77.1334865 110.800245,77.1716076 110.663335,77.208499 C110.718839,76.9023005 110.757075,76.5825751 110.769409,76.2456337 C110.770643,76.2025938 110.742274,76.1816887 110.72994,76.1472567 C111.251675,75.8103153 111.741341,75.4524689 112.228541,75.0921629 L112.228541,75.0921629 Z M56.3794547,78.7690048 C57.5326989,79.2719575 58.745147,79.7257216 60.0007647,80.1389051 C58.3171516,79.6802222 56.7408457,79.162513 56.3794547,78.7690048 L56.3794547,78.7690048 Z M56.4349585,79.6076691 C57.9853626,80.4967516 60.1031383,80.9197729 61.8286875,81.3145108 C64.0981734,81.8359091 66.4095953,82.0916894 68.7271844,82.1531751 C72.1560814,82.6524385 75.8624971,82.911908 80.0302105,82.911908 C80.3336309,82.911908 80.6370512,82.9106783 80.9404716,82.9082188 L81.0046093,82.9094486 L81.0810811,82.9082188 L81.1575529,82.9094486 L81.2031893,82.9082188 C81.5127768,82.9106783 81.8223642,82.911908 82.1319517,82.911908 C87.0915182,82.911908 91.4245094,82.5663586 95.3776083,81.8568142 C98.1811633,81.3526319 100.803406,80.6467766 103.239403,79.7749101 C103.303541,79.81795 103.382479,79.8400849 103.471285,79.8154906 C103.78334,79.7294107 104.095394,79.6445605 104.407448,79.5597103 C96.6961302,82.7754098 88.0992193,82.753275 79.8723332,83.3336995 C78.9460376,83.3988743 78.0098747,83.4628194 77.0700116,83.5193862 C74.0913114,83.4419143 71.1163116,83.2574573 68.1524124,82.9623262 C63.9748317,82.3573074 59.8527548,81.3612399 55.837985,79.8191798 C55.6406384,79.6925193 55.4469921,79.5511023 55.2521123,79.4158339 C55.2755472,79.34697 55.3002156,79.278106 55.3236505,79.2092421 C55.4506923,78.8329499 54.8561857,78.6718575 54.7291439,79.0456903 C54.726677,79.0493794 54.7254436,79.0530686 54.7242102,79.0567577 C54.5613993,78.9534618 54.4084556,79.0420011 54.3406178,79.1871073 C53.8620523,78.986664 53.3810199,78.7960585 52.9049213,78.579629 C53.1639387,78.2279311 53.5672658,77.9008275 53.9952612,77.6278312 C54.5453648,77.915584 55.1016356,78.1996477 55.6801078,78.4664954 C55.5456654,78.9805155 55.9329581,79.3199163 56.4349585,79.6076691 L56.4349585,79.6076691 Z M162.162162,78.8390985 C162.162162,78.4996977 162.073356,78.1357026 161.940147,77.7557213 C161.961115,77.6917762 161.996884,77.6290609 162.014152,77.5651158 L162.022786,77.5331433 L162.001818,77.508549 C161.996884,77.5024004 161.991951,77.4974816 161.982083,77.4888736 C161.969749,77.427388 161.93028,77.3511457 161.820506,77.2982681 C161.772403,77.2552281 161.7391,77.2048099 161.700865,77.1568511 C161.690997,77.1384054 161.68853,77.1224191 161.679896,77.1039734 C161.584923,76.9797724 161.523253,76.8629497 161.491184,76.7473567 L161.452948,76.6969384 C161.304938,76.510022 161.177896,76.3157274 161.073056,76.1103653 C159.024351,73.545184 153.942677,71.1017442 146.375668,69.0444343 C139.716454,67.2355265 131.088708,65.7192904 121.296616,64.6150081 C122.660775,62.2859316 123.923793,59.6949263 125.104172,56.7583716 C127.250316,51.4251063 128.805654,45.4302554 129.999601,37.8896552 C131.030737,31.3807842 132.054473,24.4501217 132.257986,17.5723368 C132.25922,17.5440534 132.244419,17.5231483 132.234551,17.5108512 C132.224684,17.3509885 132.093942,17.1862069 131.821357,17.1800584 C131.493268,16.2061256 130.430063,15.3059757 128.896927,14.7046461 C127.978032,14.3455699 127.012267,14.0442902 126.029234,13.7639156 C125.101705,12.6202825 123.757282,11.8135908 122.34872,11.2073423 C119.197342,9.84973909 115.769678,9.05411477 112.504826,8.01500727 C110.896451,7.50221695 109.260941,6.95622437 107.861014,5.98844023 C106.45862,5.01942637 105.42255,3.70978202 103.857345,2.96826507 C100.825608,1.53196027 97.1117915,0.640418339 93.8025358,0.178046246 C90.3514373,-0.304001254 87.043415,0.261666731 83.6872895,1.05114248 C79.9771736,1.92546844 76.4434361,2.57352719 72.6136788,2.42473192 C69.4956027,2.30176062 66.2184158,1.99679179 63.2458828,3.1601003 C61.8077195,3.72207915 60.629807,4.77717291 59.150941,5.239545 C57.5265318,5.74864619 55.7738474,5.78553758 54.101335,6.07820928 C50.4232879,6.72134918 46.8439141,7.92646794 43.5173906,9.61978275 C41.7104358,10.5408378 39.9725524,11.6057693 38.344443,12.8145772 C38.1051602,12.9928855 37.8720446,13.1736534 37.6475628,13.3617994 C36.1341611,13.7393213 34.6503615,14.1623426 33.2652351,14.7046461 C31.7308653,15.3059757 30.6688939,16.2061256 30.3395718,17.1800584 C30.0620532,17.1874366 29.9313111,17.357137 29.9276108,17.5096214 C29.9189769,17.5206889 29.9029425,17.541594 29.9041759,17.5723368 C29.9387115,18.7405642 30.0040826,19.9087915 30.0817878,21.0770189 C27.3954073,20.0133171 24.602953,19.1881797 21.7500614,19.1881797 C20.1157849,19.1881797 18.5974495,19.4513383 17.1062493,19.992412 C12.422968,21.6906457 9.29625794,25.8618322 9.14454775,30.6171324 C9.13961408,30.7413334 9.19141756,30.8360213 9.29749135,30.8999664 C9.29749135,30.9011961 9.29749135,30.9036556 9.29625794,30.9048853 C9.21485247,31.5504846 9.18771731,32.2132999 9.19511781,32.8847232 C9.17538315,32.9277632 9.15564849,32.9708031 9.13468042,33.0138431 C9.06684252,33.1601789 9.12851333,33.2868394 9.22225297,33.374149 C9.3924644,37.4408099 11.1167803,41.8677768 14.1867532,45.8704926 C16.7670599,49.2374469 20.2193919,51.6071038 23.5582495,53.8992889 C24.5560832,54.584239 25.5872192,55.291324 26.5862863,56.0193141 C27.7925674,56.8985589 28.9347108,57.9118424 30.0373848,58.8931534 C31.2954694,60.0121923 32.5967235,61.1693522 34.0003511,62.1285284 C34.8834771,62.7335472 36.2686035,63.4529293 37.8486097,63.4529293 C38.5923596,63.4529293 39.2892398,63.2746209 39.9367833,62.9512064 C40.2402037,63.5181041 40.5485577,64.0739344 40.8618455,64.6100892 C28.7854674,65.9689221 18.6578869,67.9376926 11.5386086,70.3208765 C7.77668917,71.5788729 3.51153594,73.4259018 1.37649249,75.7808022 L1.35675783,75.764816 C1.35552441,75.7660457 1.35552441,75.7660457 1.35429099,75.7672754 L1.35305758,75.7685051 C1.24575037,75.889017 1.1187085,75.9837049 0.953430727,76.0660956 L0.937396316,76.0747036 L0.928762403,76.0882305 C0.608074189,76.5764265 0.361390948,76.9920695 0.151710193,77.3941857 L0.141842864,77.4138611 L0.146776528,77.4359959 C0.162810939,77.5048599 0.198580009,77.5724941 0.219548085,77.6401283 C0.0851057182,78.0299473 0,78.4283743 0,78.8390985 C0,84.9655287 15.9863074,90.1991873 40.1933339,92.9906358 C47.8565488,97.3155365 63.3753915,100 80.7899949,100 C98.2095319,100 113.507593,97.3585765 121.223845,93.075486 C145.848999,90.3061723 162.162162,85.0282441 162.162162,78.8390985 L162.162162,78.8390985 Z" id="Fill-57"></path>
                <path d="M34.7543926,25.9851621 C34.8438838,25.8828657 34.9557478,25.8187765 35.0539396,25.728805 C35.0439961,25.9050505 35.0377814,26.0800635 35.0315668,26.2563091 C34.8612849,26.3610704 34.691003,26.4658317 34.5207211,26.5705931 C34.1814003,26.7788832 34.4933766,27.3125498 34.8339403,27.1030271 C34.8886294,27.0685175 34.9433185,27.0352404 34.9992505,27.0019632 C34.9967646,27.2620178 35.0104369,27.5233049 35.0166516,27.7833595 C35.0054652,27.7895219 34.9955217,27.7956844 34.9855782,27.8006143 C34.7307769,27.9423502 34.8314545,28.2566342 35.0377814,28.3453732 C35.0551825,28.7533261 35.0676118,29.1612791 35.101171,29.569232 C35.063883,29.5975792 35.0216233,29.6185315 34.9830924,29.6468787 C34.7084041,29.8514714 34.9072734,30.2816091 35.1732612,30.2347746 C35.588401,34.2847243 36.6983406,38.3149542 37.6603711,42.2133081 C38.9095192,47.282524 40.4010394,52.3418799 42.7837428,57.0142351 C47.3453087,65.9571551 55.3783877,71.875554 65.1192573,74.3047843 C70.5222891,75.6531242 76.147806,75.9526184 81.6850746,75.4399041 C82.0790845,75.4029295 82.0828133,74.7866864 81.6850746,74.823661 C72.2723394,75.6962612 62.2841261,74.2148128 54.2411036,69.0396032 C45.3180842,63.2986824 41.2499629,53.6150381 38.6944917,43.7711707 C37.6852297,39.8839092 36.5131435,35.8056123 35.9500946,31.7174555 C38.184889,30.3259786 40.4967452,29.0787025 42.8893922,27.9756273 C43.2510858,27.8080092 42.9366236,27.2768077 42.57493,27.4431933 C40.2655596,28.5080614 38.035737,29.7146654 35.8730327,31.0482155 C35.8258013,30.6612148 35.7723551,30.2742141 35.737553,29.8872135 C36.9208256,29.0478904 38.165002,28.3133286 39.4961838,27.7217352 C39.8603633,27.559047 39.5446582,27.0278454 39.1817216,27.1893011 C37.9499746,27.736525 36.7990182,28.4168574 35.6940503,29.1760689 C35.6704346,28.8309728 35.6580052,28.4846441 35.6468188,28.139548 C36.8263627,27.4850978 38.0046636,26.8318801 39.1842075,26.1774299 C39.5322289,25.9839296 39.2202526,25.4514956 38.8697453,25.6449959 C37.7859073,26.2464492 36.7008264,26.8491349 35.6157455,27.4505882 C35.6132596,27.1683489 35.6343895,26.887342 35.6418471,26.6051027 C36.3615056,26.1626401 37.0811641,25.7189451 37.7995796,25.2764825 C38.1389004,25.0669599 37.8281671,24.5345258 37.4863604,24.7440485 C36.8810518,25.1162593 36.2769861,25.4897026 35.6716775,25.8619135 C35.6828639,25.6585533 35.681621,25.455193 35.6965362,25.2530653 C35.9351794,25.1236542 36.1787944,25.0028706 36.4572115,24.9301539 C36.8437638,24.82909 36.6796966,24.2337992 36.2919013,24.3360955 C35.9749533,24.4186721 35.681621,24.5443857 35.4032039,24.694749 C35.3112268,24.699679 35.232922,24.7477459 35.1720183,24.8204626 C34.8575561,25.0188929 34.5691955,25.2604602 34.3143942,25.5500945 C34.0533781,25.8471236 34.4908907,26.2846562 34.7543926,25.9851621" id="Fill-58"></path>
                <path d="M70.3513212,72.417993 C70.0882217,72.7258296 70.5271365,73.1792818 70.7927298,72.8688905 C73.5159964,69.6921705 76.6033627,66.9165321 80.0386189,64.5700766 C80.3702988,64.3427118 80.0585696,63.7896279 79.7243958,64.01827 C76.2467445,66.394104 73.1095015,69.199121 70.3513212,72.417993" id="Fill-59"></path>
                <path d="M75.7987071,70.9035515 C75.3806613,71.4166472 74.8710211,71.8733023 74.7782525,72.5698297 C74.7254097,72.9738925 75.2914155,73.148345 75.3454327,72.740434 C75.4581641,71.8822815 76.578433,70.9048342 77.1150817,70.2775748 C77.7233619,69.5656545 78.348082,68.8678444 78.9868936,68.1879926 C80.2022797,66.8949915 81.4716829,65.6699756 82.7833604,64.4949865 C83.0757576,64.2333077 82.6588861,63.7817836 82.3688374,64.0421796 C80.7812027,65.4647374 79.2558051,66.9629767 77.8126076,68.5587043 C77.1221274,69.3219341 76.4504358,70.1031222 75.7987071,70.9035515" id="Fill-60"></path>
                <path d="M79.0614859,72.1749335 C78.6404767,72.6568402 78.31995,72.9350545 78.3873624,73.5771828 C78.4293361,73.9709057 79.0665737,73.9746317 79.023328,73.5771828 C78.9419244,72.8096097 80.4071892,71.6060847 80.8816196,71.0869171 C81.4743396,70.4360945 82.0734192,69.7914821 82.6788585,69.1530798 C83.891009,67.8750332 85.1311419,66.6255532 86.3928978,65.3947037 C86.6828981,65.1127634 86.2326344,64.6730855 85.9426341,64.9562679 C84.3310972,66.5286751 82.7551743,68.134617 81.226313,69.7827879 C80.4949525,70.5714756 79.7699517,71.3676154 79.0614859,72.1749335" id="Fill-61"></path>
                <path d="M82.0902987,73.7213839 C82.1634597,73.8554732 82.3879883,73.9249558 82.5216964,73.8298743 L83.2066347,73.3422769 C83.5295523,73.1118871 83.2154645,72.5828439 82.8875014,72.8156716 C82.8156018,72.8680884 82.7424408,72.9192861 82.6705412,72.9704838 C83.0628355,71.9282443 85.1504469,69.8230423 85.4809328,69.4719721 C86.5657339,68.3175852 87.7640607,67.2850976 89.0544694,66.3513485 C89.3761255,66.1185207 89.0620378,65.5894775 88.7365974,65.8247432 C86.9857789,67.0924966 85.398942,68.5272521 84.0303267,70.1789884 C83.3958442,70.9457354 81.5138405,72.6791444 82.0902987,73.7213839" id="Fill-62"></path>
                <path d="M86.8709957,73.8572488 C87.1076367,73.7666821 87.3442778,73.6748575 87.5809189,73.5830329 C87.8927997,73.4635352 87.8090652,73.0232804 87.5493667,72.9855443 C88.8672755,70.9804983 90.2762001,69.0471508 91.8137603,67.2144331 C92.0686045,66.9100284 91.6402235,66.4634842 91.3841657,66.7691468 C89.624527,68.8685332 88.0068728,71.0760964 86.5287763,73.3956102 C86.3880052,73.6144797 86.6234327,73.9528469 86.8709957,73.8572488" id="Fill-63"></path>
                <path d="M90.6443006,72.8169942 C91.6598735,70.7483659 92.9465067,68.8725967 94.510224,67.1946001 C94.7764655,66.9083825 94.3512019,66.4735284 94.0837556,66.7609743 C92.4863064,68.4745945 91.1623271,70.3921294 90.1250693,72.507437 C89.9515907,72.8599882 90.4708219,73.1707738 90.6443006,72.8169942" id="Fill-64"></path>
                <path d="M95.2604582,72.7727414 C95.9859561,71.0666028 96.9461739,69.4822467 98.1371107,67.9960262 C98.3865006,67.6850668 97.8077027,67.389478 97.56098,67.6980727 C96.338036,69.2244933 95.3618145,70.86442 94.6176457,72.6154881 C94.4656112,72.9725594 95.1097573,73.1262656 95.2604582,72.7727414" id="Fill-65"></path>
                <path d="M99.8185002,71.7622319 C99.9634432,70.3692457 100.616404,69.1234331 101.698454,68.1216191 C102.021347,67.8233987 101.513329,67.3663856 101.191871,67.664606 C99.9720537,68.7942288 99.2645597,70.197543 99.1009607,71.7622319 C99.0579083,72.1766421 99.7754479,72.1740601 99.8185002,71.7622319" id="Fill-66"></path>
                <path d="M105.089735,70.9247528 C105.274414,69.9004032 105.649767,68.9747861 106.232584,68.1670995 C106.477223,67.8297635 106.055101,67.3429575 105.809262,67.683036 C105.15929,68.5812274 104.71798,69.6000919 104.511715,70.7423719 C104.433767,71.1729553 105.011787,71.3567074 105.089735,70.9247528" id="Fill-67"></path>
                <path d="M110.335242,67.2103386 C110.380287,67.1400683 110.424431,67.069798 110.469476,66.9995278 C110.625332,66.7535818 110.236143,66.5274557 110.080287,66.7715998 C110.036143,66.8418701 109.991098,66.9130413 109.946053,66.9833116 C109.790197,67.2283566 110.179386,67.4544827 110.335242,67.2103386" id="Fill-68"></path>
                <path d="M122.015407,26.1101869 C124.212013,25.4279162 126.408619,24.7456456 128.605226,24.0633749 C128.997614,23.9416796 128.830913,23.3163727 128.434678,23.4393626 C126.238072,24.1216333 124.041465,24.803904 121.844859,25.4861747 C121.45247,25.60787 121.620453,26.2331769 122.015407,26.1101869" id="Fill-69"></path>
                <path d="M121.100809,27.9164469 C123.761711,27.2240338 126.281792,26.215467 128.679419,24.8847357 C129.022288,24.6948029 128.713706,24.1754932 128.369614,24.3654259 C126.019742,25.670913 123.547418,26.6578419 120.937947,27.3370318 C120.557119,27.4356045 120.718756,28.0162217 121.100809,27.9164469" id="Fill-70"></path>
                <path d="M116.265708,33.3599791 C119.835784,32.1845235 123.314288,30.7831137 126.702458,29.1594539 C126.70617,29.1569844 126.704933,29.1520455 126.709883,29.1508108 C123.428135,45.2775187 120.345619,64.8219378 103.763636,72.4093063 C103.402297,72.5747591 103.716612,73.1069244 104.076713,72.9414716 C121.752612,64.8540406 124.29807,43.3365352 127.868146,26.6085176 C127.958481,26.5010968 127.942394,26.3689815 127.84711,26.2627954 C127.834735,26.2442745 127.816173,26.2368662 127.800086,26.2208148 C127.76915,26.1973551 127.745638,26.1714259 127.709751,26.1590787 C127.59838,26.1059856 127.483296,26.1158634 127.394199,26.1973551 C125.395699,27.0542524 123.335325,27.6950732 121.205654,28.1321649 C120.815854,28.2124219 120.980436,28.807558 121.370237,28.7273011 C123.365024,28.318608 125.288039,27.7172982 127.166506,26.9480663 C127.040285,27.5419677 126.916539,28.140808 126.792792,28.7445872 C126.708645,28.6260538 126.557675,28.5457969 126.38938,28.6260538 C123.049472,30.2274887 119.620466,31.6054387 116.101126,32.7636082 C115.724938,32.8883152 115.885808,33.4846861 116.265708,33.3599791" id="Fill-71"></path>
                <path d="M103.087803,60.9028947 C106.166843,60.0727376 109.211064,59.1343526 112.226683,58.1135668 C111.277851,59.4553467 110.240727,60.7356334 109.109092,61.945818 C107.981189,62.2741913 106.848311,62.5853465 105.702997,62.8596058 C105.313765,62.9530753 105.479158,63.545869 105.86839,63.4523995 C106.6767,63.2593111 107.480036,63.0514643 108.278398,62.831319 C107.113188,63.9910792 105.849737,65.0782776 104.471879,66.0769258 C104.153529,66.3093698 104.463174,66.8431301 104.786498,66.6082264 C106.501359,65.3636057 108.0272,63.975091 109.426199,62.4943367 C111.422103,61.9089222 113.39438,61.2497159 115.338055,60.4970401 C115.706147,60.3543761 115.545729,59.7603525 115.172662,59.9042464 C113.552311,60.5327061 111.91082,61.0984428 110.253162,61.6100656 C111.325106,60.3937317 112.303783,59.112215 113.20536,57.7778143 C114.960015,57.1702623 116.708452,56.5430325 118.440723,55.8702977 C118.810058,55.7276337 118.64964,55.1323803 118.27533,55.2775041 C116.776847,55.859229 115.267172,56.4077476 113.75128,56.9415079 C114.329533,56.0412486 114.872966,55.1188518 115.387797,54.1767772 C116.703478,53.6405572 118.01294,53.0846594 119.308724,52.4967852 C119.671841,52.3319836 119.355979,51.8019129 118.995348,51.9667145 C117.955737,52.4377518 116.909908,52.8866515 115.857861,53.3244826 C116.423678,52.2397439 116.944727,51.1279483 117.440905,50.0026242 C117.674693,49.9165338 117.909725,49.8390525 118.14227,49.7517323 C118.514092,49.6139877 118.35243,49.0187343 117.976877,49.1589386 C117.912212,49.1835358 117.84506,49.2056734 117.780395,49.2302706 C118.317611,47.9647422 118.81752,46.6807658 119.28634,45.3820311 C120.437871,44.8962355 121.583184,44.3944516 122.717305,43.8656108 C123.07918,43.6983495 122.764561,43.1670489 122.40393,43.3355401 C121.467534,43.7709114 120.519945,44.1792257 119.571113,44.5863102 C119.826042,43.8570018 120.071022,43.1252336 120.309785,42.3897759 C121.404112,42.0343457 122.502171,41.6899842 123.594011,41.3259449 C123.970808,41.200499 123.809146,40.6064754 123.428618,40.7331512 C122.469838,41.0529155 121.506084,41.3530019 120.54606,41.6666168 C120.691556,41.2054184 120.82959,40.7429901 120.968868,40.2805619 C121.216336,40.2030805 121.465046,40.1255992 121.712514,40.046888 C122.091798,39.9275914 121.930136,39.3335678 121.547121,39.4540943 C121.426496,39.4922201 121.305871,39.5303458 121.185247,39.5672417 C121.397895,38.8526916 121.603081,38.1381416 121.804537,37.4223616 C122.763317,37.1370336 123.720854,36.8443263 124.673416,36.5356309 C125.051457,36.4126446 124.889795,35.8186211 124.508023,35.9428372 C123.677329,36.212177 122.840417,36.4642988 122.004749,36.7164206 C122.249729,35.8321496 122.487248,34.9503382 122.721036,34.0697567 C123.505719,33.7684404 124.285427,33.4572852 125.061405,33.1313717 C125.429497,32.976409 125.112391,32.4475682 124.748029,32.6000712 C124.141175,32.8546527 123.528103,33.0944758 122.915031,33.334299 C123.039386,32.8595721 123.164985,32.3848452 123.288097,31.9138079 C123.387581,31.5300909 122.788188,31.3665192 122.688704,31.7502362 C122.527042,32.3676272 122.362893,32.9911674 122.198743,33.6134778 C119.848426,34.5038982 117.457071,35.2799413 115.025923,35.9403774 C114.640421,36.0461456 114.80457,36.6389393 115.191316,36.534401 C117.501839,35.9059413 119.771326,35.1655641 122.00848,34.3317174 C121.778422,35.1975406 121.540903,36.0658234 121.299654,36.9353361 C117.950762,37.9241455 114.564564,38.7739804 111.14106,39.483611 C110.750584,39.564782 110.915976,40.1575756 111.306452,40.0764047 C114.606845,39.3926012 117.871175,38.5759726 121.101929,37.6326681 C120.897986,38.3521376 120.687825,39.0716071 120.47269,39.7910766 C116.739541,40.9643654 113.005147,42.1376541 109.270754,43.3109428 C108.89147,43.4302395 109.053132,44.024263 109.436147,43.9037365 C113.043698,42.7710333 116.651248,41.6371001 120.258799,40.5043968 C120.11579,40.9705147 119.970294,41.4354027 119.822311,41.9002907 C116.009574,43.1363024 112.186889,44.3391078 108.343063,45.4767305 C107.960048,45.5898779 108.122954,46.1826716 108.508456,46.0695242 C112.216734,44.9712571 115.907603,43.8127267 119.58728,42.6234498 C119.334838,43.3945735 119.072448,44.1620076 118.80011,44.9257522 C115.139086,46.4581607 111.392258,47.7704239 107.567085,48.8625417 C107.182827,48.9719995 107.345732,49.566023 107.732478,49.4553354 C111.405937,48.4062628 115.004783,47.144424 118.527771,45.6931863 C118.053977,46.983312 117.540389,48.2562196 116.994469,49.5106792 C112.686798,51.0787538 108.304513,52.4242233 103.847615,53.5237203 C103.459626,53.6196495 103.625018,54.2124432 104.013007,54.1165139 C108.297051,53.0600621 112.511456,51.7736261 116.65871,50.281803 C116.135173,51.4403334 115.568113,52.5730366 114.967476,53.6848322 C111.730504,54.9983253 108.433842,56.1617751 105.07749,57.1591935 C104.695719,57.2723409 104.858624,57.8663644 105.242882,57.7519872 C108.3841,56.8185217 111.470602,55.7313233 114.508604,54.5223685 C113.981337,55.4546042 113.425469,56.368392 112.83105,57.2563527 C109.564233,58.3829066 106.26384,59.4086119 102.92241,60.310101 C102.536909,60.4146393 102.701058,61.007433 103.087803,60.9028947" id="Fill-72"></path>
                <path d="M59.0709806,8.9206929 L60.2718427,7.72041994 C60.5456393,7.4467577 60.1217349,7.02186108 59.8479384,7.29552331 C59.4468504,7.69641448 59.0469633,8.09610538 58.6470762,8.49579628 C58.3732796,8.76945851 58.797184,9.19435514 59.0709806,8.9206929" id="Fill-73"></path>
                <path d="M60.8033488,8.93943243 C61.2134197,8.58493794 61.6234905,8.23044346 62.0323187,7.87733915 C62.344221,7.60764531 62.0360466,7.00291942 61.7191737,7.27678379 C61.3091029,7.63127827 60.899032,7.98438258 60.4902039,8.33887707 C60.1783015,8.60857091 60.4864759,9.21329679 60.8033488,8.93943243" id="Fill-74"></path>
                <path d="M63.6893314,10.553003 C63.8477838,9.82526818 64.1825784,9.23470562 64.7243834,8.79719839 C65.0566223,8.53007352 64.7384397,7.903413 64.4023672,8.17486963 C63.7225553,8.72211464 63.2727549,9.44118593 63.0734116,10.3609618 C62.9762956,10.8129083 63.5922154,11.0049494 63.6893314,10.553003" id="Fill-75"></path>
                <path d="M65.2726021,9.75882433 C65.4276027,9.36112188 65.5826034,8.96341942 65.7376041,8.56450445 C65.8714683,8.22136483 65.4918928,7.91460044 65.3580286,8.25895256 C65.2030279,8.65665502 65.0480272,9.05556999 64.8930266,9.45327245 C64.7591623,9.79762457 65.1387378,10.1031765 65.2726021,9.75882433" id="Fill-76"></path>
                <path d="M67.1174958,9.68731465 C67.2220003,9.29324504 67.3265049,8.90050673 67.4310094,8.50776843 C67.5373157,8.10970486 67.1021805,7.93663374 66.9967751,8.33070336 C66.8922706,8.72344167 66.7877661,9.11617997 66.6832616,9.51024959 C66.5769553,9.90831316 67.0120904,10.0813843 67.1174958,9.68731465" id="Fill-77"></path>
                <path d="M69.8198198,8.61628777 L69.8198198,7.59992845 C69.8198198,7.07630013 69.3693694,7.07630013 69.3693694,7.59992845 L69.3693694,8.61628777 C69.3693694,9.13991609 69.8198198,9.13991609 69.8198198,8.61628777" id="Fill-78"></path>
                <path d="M73.4234234,6.7490991 L73.4234234,6.52387387 C73.4234234,6.23378378 72.972973,6.23378378 72.972973,6.52387387 L72.972973,6.7490991 C72.972973,7.03918919 73.4234234,7.03918919 73.4234234,6.7490991" id="Fill-79"></path>
                <path d="M76.1153776,17.0496694 C76.5264197,16.6976529 76.9362384,16.3470558 77.3460571,15.9964587 C77.6592319,15.728188 77.3546204,15.1107397 77.0377755,15.3832686 L75.8070961,16.4364793 C75.4939212,16.70475 75.7985327,17.320779 76.1153776,17.0496694" id="Fill-80"></path>
                <path d="M78.7233472,15.4114763 C78.3372475,15.8083347 77.9498209,16.2040049 77.5637211,16.6008633 C77.2837656,16.8872192 77.7508004,17.3090298 78.0334095,17.0202975 C78.4195093,16.6246273 78.8056091,16.2277689 79.1930356,15.8320987 C79.4729911,15.5457428 79.0059564,15.1239322 78.7233472,15.4114763" id="Fill-81"></path>
                <path d="M80.4415781,16.3883655 C80.0707518,17.0549805 79.6985571,17.7215955 79.3277308,18.3882105 C79.1074243,18.7839245 79.6971887,19.142762 79.9188635,18.7470479 C80.2896898,18.0804329 80.6605162,17.4138179 81.0327109,16.7472029 C81.2530173,16.3500706 80.6618845,15.9926515 80.4415781,16.3883655" id="Fill-82"></path>
                <path d="M82.4942974,18.6898133 C82.6949625,17.8883583 83.0921553,17.2622215 83.6600169,16.8338121 C83.9454992,16.6176302 83.6858758,16.0481752 83.3983248,16.2643572 C82.7156497,16.7797666 82.2367427,17.5522217 81.9957377,18.514495 C81.8933365,18.9191771 82.3929305,19.0931772 82.4942974,18.6898133" id="Fill-83"></path>
                <path d="M86.3947597,17.7616595 C86.3996147,17.2896094 86.6876772,16.9398245 87.2460006,16.6527669 C87.6570562,16.4422581 87.0809311,16.0690833 86.6747306,16.2774658 C85.9578109,16.6442615 85.5904503,17.1673441 85.5855953,17.7616595 C85.5823586,18.102939 86.391523,18.1040022 86.3947597,17.7616595" id="Fill-84"></path>
                <path d="M88.7475742,17.6382296 C88.7043309,17.2788318 88.758385,16.9763085 88.894421,16.6665246 C89.0430697,16.3313287 88.6538805,16.0263852 88.5052318,16.3615811 C88.30343,16.8202065 88.2502769,17.2752016 88.31334,17.799172 C88.3592859,18.1827716 88.7935201,18.019409 88.7475742,17.6382296" id="Fill-85"></path>
                <path d="M92.3464254,16.7626051 C92.33111,16.3938999 92.3644434,16.0930365 92.4509299,15.7553025 C92.5626416,15.3172807 92.1266055,15.1270288 92.0166956,15.5591513 C91.9148938,15.957353 91.8788578,16.3319574 91.8959749,16.7626051 C91.9139929,17.233073 92.3653443,17.2374974 92.3464254,16.7626051" id="Fill-86"></path>
                <path d="M95.0090409,16.9350191 L95.3468787,15.8594424 C95.4757075,15.4478551 95.0874192,15.0835932 94.9576895,15.4980487 C94.8450769,15.8565742 94.7324643,16.2150998 94.6207526,16.5736253 C94.4910228,16.9852126 94.8793111,17.3480405 95.0090409,16.9350191" id="Fill-87"></path>
                <path d="M97.724266,15.2110913 C97.8287705,15.0552354 97.933275,14.9002805 98.0377795,14.7444246 C98.1990408,14.5029832 97.8089507,14.276857 97.6485903,14.5164967 C97.5440858,14.6723525 97.4404822,14.8282084 97.3359777,14.9840642 C97.1738156,15.2255057 97.5639056,15.4516318 97.724266,15.2110913" id="Fill-88"></path>
                <path d="M100.426594,15.0819553 C100.50227,14.9693427 100.577045,14.8567301 100.65182,14.7441175 C100.813081,14.502676 100.422991,14.2765499 100.263531,14.5170904 C100.187856,14.6297031 100.113081,14.7423157 100.038306,14.8549283 C99.8770449,15.0963697 100.267135,15.3224959 100.426594,15.0819553" id="Fill-89"></path>
                <path d="M105.622635,15.3153153 C105.333446,15.3153153 105.332545,15.7657658 105.622635,15.7657658 C105.912725,15.7657658 105.913626,15.3153153 105.622635,15.3153153" id="Fill-90"></path>
                <path d="M84.3925736,8.99439007 C84.7802244,8.9583014 84.7838815,8.31386089 84.3925736,8.34994956 C83.5807012,8.42341578 82.7432291,8.21332818 82.1776003,7.55470998 C81.548582,6.82262557 81.5437059,5.73223223 82.0983635,4.96534803 C82.3360739,4.63539449 81.8070159,4.31446312 81.5717436,4.64055002 C80.9122496,5.55436665 80.9244399,6.85226983 81.5668675,7.77897527 C82.2141711,8.71083624 83.3344576,9.09105614 84.3925736,8.99439007" id="Fill-91"></path>
                <path d="M84.3428796,7.20268534 C84.6854643,7.26494491 84.8333739,6.66476261 84.4875265,6.60250304 C84.0361848,6.52156559 83.3575408,6.39455606 83.4369335,5.7009844 C83.4826114,5.3050135 82.9377386,5.30874908 82.8931482,5.7009844 C82.7789534,6.69838278 83.6403091,7.07692099 84.3428796,7.20268534" id="Fill-92"></path>
                <path d="M88.5856286,7.77856997 C91.1319311,8.00469609 93.6432156,7.95514654 96.1707585,7.64523663 C96.5659606,7.59658799 96.3983749,7.16235375 96.0044234,7.2110024 C93.5319087,7.514606 91.073151,7.54884024 88.5856286,7.32811952 C88.1879252,7.29298438 88.1904265,7.74343483 88.5856286,7.77856997" id="Fill-93"></path>
                <path d="M39.3192928,16.0678929 C39.7456543,15.2162212 40.3985603,14.5373855 41.2907378,14.0484418 C41.6394634,13.8574126 41.3200104,13.3650577 40.9700121,13.557224 C39.9925622,14.0927878 39.2378386,14.8455337 38.7694772,15.7813491 C38.6040235,16.1122389 39.1525663,16.4021939 39.3192928,16.0678929" id="Fill-94"></path>
                <path d="M41.2581249,16.0391598 C41.4775415,15.5890391 41.7951181,15.2122179 42.2440559,14.8612063 C42.5573019,14.6165306 42.0491794,14.2500333 41.7344898,14.4957414 C41.2018273,14.9107609 40.8207353,15.3701731 40.5623435,15.9018523 C40.4093293,16.2167303 41.1065543,16.3509406 41.2581249,16.0391598" id="Fill-95"></path>
                <path d="M43.0853649,16.9873751 C43.4219724,16.56005 43.7601906,16.132725 44.0967982,15.7053999 C44.3303298,15.4105867 43.6361773,15.1496719 43.4026457,15.4455123 C43.0644275,15.8728374 42.7262094,16.3001624 42.3896018,16.7274875 C42.1560702,17.0223007 42.8518333,17.2821883 43.0853649,16.9873751" id="Fill-96"></path>
                <path d="M45.4954955,16.8662971 C45.4963964,16.4321654 45.5630631,16.0343845 45.6963964,15.6293335 C45.7990991,15.3156786 45.363964,15.1806616 45.2621622,15.4912007 C45.1144144,15.9409112 45.0459459,16.3864674 45.045045,16.8662971 C45.045045,17.2007238 45.4954955,17.2007238 45.4954955,16.8662971" id="Fill-97"></path>
                <path d="M47.4578597,17.334551 C47.3137155,17.1471435 47.2614633,16.9043286 47.3020038,16.6061062 C47.3290309,16.0846245 46.8785804,16.0878838 46.8515534,16.6061062 C46.8236254,17.1357361 46.9200218,17.5610696 47.1398417,17.9114401 C47.3560579,18.2569217 47.6758777,17.6816622 47.4578597,17.334551" id="Fill-98"></path>
                <path d="M50.971292,16.9761568 C51.4748357,16.9401208 51.4812299,16.4896703 50.971292,16.5257064 C50.6643702,16.5752559 50.4373759,16.510391 50.2871121,16.3302109 C50.0537236,16.0716523 49.364748,16.2986793 49.596538,16.5572379 C49.8682917,16.8581388 50.3686382,17.0194 50.971292,16.9761568" id="Fill-99"></path>
                <path d="M53.5574533,17.1060582 C55.6488354,16.6691794 57.7757316,16.5423436 59.9473492,16.7449285 C60.3603643,16.7836839 60.5405651,16.3600171 60.1222887,16.3203809 C57.828345,16.1063455 55.5935914,16.2199693 53.3825138,16.6815106 C52.9800214,16.765187 53.1510149,17.1906154 53.5574533,17.1060582" id="Fill-100"></path>
                <path d="M109.313246,15.2070312 C110.368059,15.2097339 111.391329,15.0962204 112.39441,14.8610852 C112.777979,14.7709951 112.613953,14.33586 112.226599,14.426851 C111.27651,14.6493735 110.313804,14.7592834 109.313246,14.7565807 C108.908228,14.7556798 108.906966,15.2061303 109.313246,15.2070312" id="Fill-101"></path>
                <path d="M66.9226429,13.251005 C67.0338118,13.2428419 67.1449808,13.235845 67.2561497,13.2276819 C67.2928565,13.2253496 67.3096367,13.1961956 67.3390021,13.1822017 C67.4795364,13.1728725 67.6179732,13.1903648 67.7375323,13.2778267 C67.8612864,13.368787 68.1129898,13.8084284 67.787873,13.8305854 C67.4533173,13.8550747 67.450171,14.4381536 67.787873,14.4136643 C68.2954747,14.3786795 68.587031,13.8025976 68.4223751,13.2696635 C68.1979396,12.5478119 67.4071717,12.5489781 66.8534244,12.6784216 C66.5660632,12.7448926 66.6268915,13.2719959 66.9226429,13.251005" id="Fill-102"></path>
                <path d="M60.7759898,11.7311584 C60.1453592,12.0623286 60.2588727,13.5419604 60.9372511,13.513097 C61.2264402,13.5009439 61.2282421,12.7413793 60.9372511,12.7535324 C60.9237375,12.6563081 60.9093231,12.560603 60.8958096,12.4633787 C61.1714853,12.3175423 61.0543682,11.5838029 60.7759898,11.7311584" id="Fill-103"></path>
                <path d="M66.465263,17.6745035 C66.7333834,17.665587 66.7342187,17.1083065 66.465263,17.117223 C65.6391848,17.1462016 65.4930133,18.6352551 66.3065625,18.9094371 C66.5671655,18.9963729 66.6782559,18.4591545 66.4176528,18.3722187 C66.138674,18.277481 66.129486,17.6867637 66.465263,17.6745035" id="Fill-104"></path>
                <path d="M74.2429192,21.2057572 C74.627782,21.1174689 74.9431057,21.2093608 75.1828956,21.4417932 C75.4190886,21.670622 75.8411188,21.3499013 75.6073237,21.1237752 C75.2380473,20.7661175 74.6541589,20.6399914 74.083459,20.7715229 C73.7153815,20.8553067 73.8724439,21.2904419 74.2429192,21.2057572" id="Fill-105"></path>
                <path d="M18.018018,47.9653153 L18.018018,48.0779279 C18.018018,48.368018 18.4684685,48.368018 18.4684685,48.0779279 L18.4684685,47.9653153 C18.4684685,47.6752252 18.018018,47.6752252 18.018018,47.9653153" id="Fill-106"></path>
                <path d="M28.3371132,28.6850855 C28.4848609,28.2727882 28.6317078,27.860491 28.7794555,27.4470973 C28.8929691,27.126909 28.5055817,26.8472925 28.3902664,27.1707704 C28.2425186,27.5830676 28.0956718,27.9964614 27.9488249,28.4087586 C27.8344105,28.7289469 28.2217979,29.0085633 28.3371132,28.6850855" id="Fill-107"></path>
                <path d="M30.1801802,29.159009 L30.1801802,29.0463964 C30.1801802,28.7563063 29.7297297,28.7563063 29.7297297,29.0463964 L29.7297297,29.159009 C29.7297297,29.4490991 30.1801802,29.4490991 30.1801802,29.159009" id="Fill-108"></path>
                <path d="M36.9370981,57.9768522 C36.9623233,59.0130755 37.0668278,60.0268296 37.2524134,61.0273666 C37.3280891,61.4370978 37.7632242,61.2639533 37.6866476,60.8515788 C37.5109719,59.9065537 37.4118728,58.9549201 37.3875485,57.9768522 C37.3776386,57.5525822 36.9271882,57.5499388 36.9370981,57.9768522" id="Fill-109"></path>
                <path d="M36.0367294,58.8206524 C36.0799726,59.5468241 36.1232158,60.2729958 36.16736,60.9991675 C36.1880807,61.3469884 36.6385312,61.3502595 36.6178104,60.9991675 C36.5736663,60.2729958 36.5304231,59.5468241 36.4871798,58.8206524 C36.4664591,58.4728314 36.0160086,58.4695603 36.0367294,58.8206524" id="Fill-110"></path>
                <path d="M34.7127411,57.8778173 C34.5571577,58.5759977 34.4015744,59.2741782 34.245991,59.9723586 C34.1601226,60.3608008 34.5699104,60.5270947 34.6557788,60.1411913 C34.8122124,59.4430109 34.9677957,58.7448305 35.1233791,58.0453806 C35.2092475,57.6569384 34.7994596,57.4906445 34.7127411,57.8778173" id="Fill-111"></path>
                <path d="M33.5587045,57.7881863 C33.2064724,58.1988876 32.8542403,58.6083592 32.5005993,59.0178308 C32.2286762,59.335079 32.840151,59.6412605 33.1092563,59.3289308 C33.4614884,58.9182296 33.8137205,58.508758 34.1659526,58.0992863 C34.4378757,57.7820381 33.8278098,57.4758566 33.5587045,57.7881863" id="Fill-112"></path>
                <path d="M31.0020842,56.9496783 C30.8894716,57.2855043 30.776859,57.6213303 30.6642464,57.9587709 C30.5146968,58.4043862 30.903886,58.8112523 31.0525347,58.365637 C31.1651473,58.029811 31.2777599,57.693985 31.3903725,57.3565444 C31.5399221,56.9109292 31.1507329,56.504063 31.0020842,56.9496783" id="Fill-113"></path>
                <path d="M30.1699336,55.8566728 C30.0951588,55.8620782 30.0203841,55.8683845 29.9456093,55.8737899 C29.6591228,55.8963125 29.6564201,56.3476638 29.9456093,56.3242404 C30.0203841,56.318835 30.0951588,56.3125287 30.1699336,56.3071233 C30.457321,56.2846008 30.4591228,55.8341503 30.1699336,55.8566728" id="Fill-114"></path>
                <path d="M41.2209518,69.9465527 C41.6071578,69.8639169 41.4435737,69.2949102 41.0573678,69.377546 C37.3884113,70.1673085 33.7022355,70.9936668 30.1144561,72.0773767 C27.3384471,72.9167206 24.6829737,74.0594561 22.6117291,76.0710484 C22.3337592,76.3425661 22.7691634,76.7592868 23.0471333,76.4889496 C25.2844218,74.3144467 28.2178651,73.2165706 31.2201858,72.3725047 C34.5189257,71.4458028 37.8680938,70.6678455 41.2209518,69.9465527" id="Fill-115"></path>
                <path d="M40.2418005,71.1732548 C35.5070079,71.6824028 30.6321475,72.5322399 27.1191966,76.0397037 C26.8340585,76.325078 27.2755223,76.7701111 27.5619109,76.4847368 C30.9498013,73.1004742 35.6795915,72.2921232 40.2418005,71.8018325 C40.6382424,71.7590892 40.6419943,71.1305115 40.2418005,71.1732548" id="Fill-116"></path>
                <path d="M41.9638861,72.086869 C38.0589198,73.2748484 34.3248573,74.8833406 30.7801413,76.9049897 C30.4371043,77.1011473 30.7457147,77.6307728 31.0899812,77.4346152 C34.5879753,75.4387118 38.2728569,73.8510613 42.1274127,72.6790197 C42.5048764,72.5637772 42.3438088,71.9716264 41.9638861,72.086869" id="Fill-117"></path>
                <path d="M41.9525895,72.9978899 C39.5690335,73.9761647 37.342052,75.247109 35.2755271,76.8283372 C34.941674,77.083068 35.2651751,77.6711169 35.6016162,77.4136761 C37.624145,75.8649668 39.7903082,74.608927 42.124692,73.6509764 C42.5090113,73.493802 42.3420848,72.8380056 41.9525895,72.9978899" id="Fill-118"></path>
                <path d="M40.860917,74.8732687 C40.1888796,75.5384642 39.5168422,76.2022106 38.8448048,76.8659569 C38.524915,77.1818886 39.0007175,77.693466 39.3192632,77.3789836 C39.9913006,76.713788 40.663338,76.0500417 41.3353754,75.3862953 C41.6552652,75.0703637 41.1794627,74.5587862 40.860917,74.8732687" id="Fill-119"></path>
                <path d="M142.620635,79.0505979 C142.725718,79.4518452 143.337224,79.2809915 143.230875,78.8784498 C142.306652,75.3681823 138.342622,75.1584981 135.61933,73.9055708 C135.250907,73.7360114 134.928062,74.2938747 135.300283,74.4647285 C137.822272,75.6257572 141.767311,75.8095544 142.620635,79.0505979" id="Fill-120"></path>
                <path d="M134.549709,75.4173718 C137.17294,75.5316881 139.493943,76.907337 140.828455,79.1255868 C141.043023,79.4800958 141.608228,79.1576982 141.39366,78.8006203 C139.937472,76.3807113 137.408442,74.8997373 134.549709,74.7751454 C134.128422,74.7571631 134.12973,75.3993895 134.549709,75.4173718" id="Fill-121"></path>
                <path d="M132.657105,76.3464592 C134.531674,77.0715353 136.095814,78.3417613 137.205633,80.0268919 C137.442786,80.3854018 138.019679,80.0497184 137.781194,79.688523 C136.568786,77.8476353 134.880741,76.4901317 132.834303,75.6992616 C132.433275,75.5448472 132.260074,76.1933875 132.657105,76.3464592" id="Fill-122"></path>
                <path d="M132.710826,80.9384121 C132.943517,81.2720856 133.512755,80.9596572 133.277435,80.6234842 C132.440011,79.4262586 131.411964,78.4002437 130.201182,77.5379412 C129.86332,77.2967465 129.53466,77.8391222 129.869893,78.0778175 C130.986021,78.8726354 131.937819,79.8361646 132.710826,80.9384121" id="Fill-123"></path>
                <path d="M127.370225,80.6535983 C127.321576,81.0826467 127.75581,81.2665246 127.804459,80.8347521 C127.899954,79.9957241 127.796351,79.2139026 127.459414,78.5247011 C127.288243,78.1760141 126.897252,78.5151666 127.070225,78.8679398 C127.333288,79.4059528 127.4459,79.9848276 127.370225,80.6535983" id="Fill-124"></path>
                <path d="M123.861283,81.9258356 C124.375782,81.5538123 124.802913,81.1281317 125.170585,80.6130225 C125.395072,80.2982336 124.869652,80.0001379 124.646379,80.3125421 C124.340592,80.7406074 123.983841,81.1018993 123.554283,81.4107264 C123.242429,81.6348943 123.545789,82.1523883 123.861283,81.9258356" id="Fill-125"></path>
                <path d="M156.10994,75.402526 C157.036785,75.654996 157.710722,76.3312097 157.82475,77.174891 C157.87884,77.5757982 158.609791,77.580873 158.555701,77.174891 C158.402201,76.0394102 157.568917,75.1361003 156.304373,74.7910156 C155.855569,74.6679523 155.662599,75.2807314 156.10994,75.402526" id="Fill-126"></path>
                <path d="M153.505882,77.1240218 C153.527503,77.5930878 153.977954,77.5974991 153.956332,77.1240218 C153.931107,76.5682006 153.808584,76.1285431 153.546422,75.7682887 C153.326602,75.4639104 153.005882,75.9815005 153.228404,76.2873492 C153.389665,76.5093836 153.489665,76.7725899 153.505882,77.1240218" id="Fill-127"></path>
                <path d="M69.1989447,97.4184746 C69.0484942,97.3806367 68.8989447,97.3427989 68.7484942,97.3049611 C68.4674131,97.2346908 68.3475933,97.668925 68.6286744,97.7400962 C68.7791249,97.7770331 68.9286744,97.814871 69.0791249,97.8527088 C69.3602059,97.9229791 69.4800258,97.4887449 69.1989447,97.4184746" id="Fill-128"></path>
                <path d="M94.3014186,97.8211025 C94.6911012,97.8084899 94.6935367,97.3580395 94.3014186,97.3706521 C86.6904313,97.6111926 79.0721373,97.5868683 71.4648032,97.2976791 C71.0726852,97.2823638 71.0739029,97.7328142 71.4648032,97.7481295 C79.0721373,98.0373187 86.6904313,98.0616431 94.3014186,97.8211025" id="Fill-129"></path>
                <path d="M13.1355512,71.1774714 C9.21384476,71.9608845 5.6683906,73.9383181 2.79464323,76.9246731 C2.51365996,77.2153572 2.94056158,77.6754983 3.22033892,77.3848142 C6.02534789,74.4714561 9.47191523,72.5696264 13.2959408,71.8070696 C13.6770168,71.7301621 13.5154213,71.1018675 13.1355512,71.1774714" id="Fill-130"></path>
                <path d="M12.1285902,73.9020934 C9.6839634,74.9023317 7.47468882,76.2390556 5.50456253,77.8926753 C5.20467818,78.1438872 5.6526067,78.5506661 5.95249105,78.2994542 C7.88339197,76.6781003 10.0534412,75.3794039 12.44872,74.3999079 C12.8181977,74.2477979 12.498068,73.7511358 12.1285902,73.9020934" id="Fill-131"></path>
                <path d="M10.3580879,76.6173387 C9.14796635,77.3257997 8.10508766,78.3218126 7.27484632,79.5678705 C7.0430955,79.9165444 7.46239724,80.4124671 7.69773184,80.0582366 C8.49930298,78.855242 9.48961963,77.9022925 10.6591251,77.2174469 C11.0031675,77.0160217 10.7009358,76.4159135 10.3580879,76.6173387" id="Fill-132"></path>
                <path d="M10.2694565,78.4251075 C9.50065846,78.7960594 9.0773708,79.2984112 9.01006357,79.9372166 C8.97715782,80.2616732 9.72501588,80.2606624 9.75792163,79.9372166 C9.80578455,79.4914679 10.1034321,79.1235483 10.646377,78.8617593 C11.0352632,78.6737565 10.6628299,78.2350831 10.2694565,78.4251075" id="Fill-133"></path>
                <path d="M11.3969587,80.3370976 C11.2263086,79.9834278 10.6732996,80.2900221 10.8426667,80.6412777 C11.5842889,82.1814913 13.3883043,82.7645032 14.9523831,83.3595858 C17.2888781,84.2479848 19.7100566,84.910663 22.1261028,85.572134 C22.5238587,85.6807698 22.6932257,85.0989649 22.2967529,84.9903292 C20.437565,84.4809482 18.5758108,83.9727743 16.7512661,83.3583787 C14.9729124,82.760882 12.2437938,82.0969968 11.3969587,80.3370976" id="Fill-134"></path>
                <path d="M38.5929953,31.5274476 C38.5176215,31.1397309 37.9220451,31.3034335 37.9974189,31.6911502 C38.0295454,31.8585454 38.0629076,32.0259405 38.0950341,32.1921048 C37.7601768,32.3656542 37.4265552,32.5392036 37.0916979,32.712753 C36.7395417,32.8961491 37.0509219,33.4278749 37.4030781,33.2444787 C37.6749179,33.1041622 37.9467578,32.9626148 38.2185977,32.8222983 C38.3149772,33.3170987 38.4138281,33.8131299 38.5139146,34.3079302 C38.3508107,34.3965512 38.1889424,34.4839413 38.0258385,34.5725623 C37.6761536,34.7621126 37.9875338,35.2938384 38.3372187,35.104288 C38.4385408,35.0488999 38.5398629,34.9935118 38.6424207,34.9393546 C38.7289152,35.3652275 38.8191166,35.7898696 38.909318,36.2145117 C38.4076499,36.5369935 37.9059818,36.8594754 37.4141988,37.199189 C37.0904623,37.4232031 37.3981355,37.9561597 37.7268146,37.7296839 C38.1605228,37.4305882 38.6053516,37.1474935 39.0464736,36.8607062 C39.1712728,37.4342807 39.3010145,38.0066244 39.4332275,38.5777373 C39.0501805,38.8066748 38.6646621,39.029458 38.285322,39.2633189 C37.9479934,39.471332 38.2569024,40.0042886 38.5967022,39.7950446 C38.92291,39.5944166 39.2540604,39.4036354 39.5827395,39.2066999 C39.7161881,39.7667352 39.8533437,40.3243087 39.9966774,40.8806514 C39.6506994,41.0886645 39.3010145,41.2905233 38.9562722,41.5034598 C38.6201793,41.7127037 38.9290882,42.2456604 39.268888,42.0351856 C39.5642049,41.8530203 39.8644644,41.6794709 40.1622526,41.5009981 C40.3290634,42.1287299 40.5032881,42.7527692 40.6861621,43.3743467 C40.3451267,43.6365171 39.9929705,43.8826864 39.6581132,44.1559344 C39.35044,44.4082579 39.7903263,44.841516 40.0942926,44.5916541 C40.3463623,44.3848718 40.6132596,44.2014757 40.8702719,44.0020785 C41.0729161,44.6691974 41.2866811,45.3301621 41.5115668,45.988665 C41.3373422,46.1905239 41.4819115,46.5117749 41.7018547,46.51916 C41.7759928,46.7320964 41.850131,46.9450329 41.927976,47.1567385 C41.9131484,47.1665853 41.8983208,47.1752012 41.8834931,47.1838172 C41.568406,47.3881377 41.8303608,47.8693987 42.1429766,47.7364673 C42.3394427,48.2509612 42.542087,48.7629934 42.7546163,49.2701023 C42.5667997,49.3944178 42.3715692,49.5088865 42.1837526,49.633202 C41.8550735,49.8522927 42.1639824,50.3852493 42.4951328,50.1649278 C42.6644149,50.0529207 42.8374039,49.9507605 43.006686,49.8399843 C43.1673186,50.2080074 43.3267156,50.5772614 43.4972334,50.941592 C43.2130372,51.1188339 42.9288409,51.294845 42.6434091,51.4720869 C42.3073162,51.6813309 42.6162251,52.2142875 42.9547893,52.0038127 C43.2266291,51.8351867 43.4997046,51.6653299 43.7715445,51.4967039 C43.9408266,51.8450335 44.108873,52.1945939 44.2880402,52.5380001 C44.0063153,52.7090878 43.7159409,52.867867 43.4342159,53.0414164 C43.0968874,53.2481987 43.407032,53.7811553 43.7468318,53.5719113 C44.0236142,53.4032853 44.3078104,53.2469678 44.5858284,53.0783418 C45.0096515,53.8599295 45.4581872,54.6316703 45.9425564,55.3874102 C45.5298541,55.6975835 45.1072667,55.9929867 44.6970356,56.3068526 C44.3856554,56.544406 44.6933287,57.0785935 45.0084158,56.8373475 C45.4272963,56.5185582 45.8585332,56.21577 46.279885,55.9006732 C46.6864091,56.512404 47.1188816,57.1118263 47.5698886,57.7038636 C47.1707783,57.9980359 46.7679611,58.2848232 46.3725576,58.5826881 C46.0587062,58.8190107 46.3663795,59.354429 46.6839378,59.1144139 C47.0991114,58.800548 47.5241701,58.4989905 47.9442862,58.190048 C48.0419015,58.3143635 48.1321029,58.4411407 48.2321894,58.5642254 C48.5546903,58.960558 48.9093177,59.3273503 49.2466463,59.7089128 C48.8821337,60.0129319 48.5089718,60.3046426 48.151873,60.6172776 C47.8516136,60.879448 48.2902642,61.3139368 48.5880524,61.0529973 C48.9365017,60.7477474 49.2997786,60.4646526 49.6544061,60.1692494 C50.013976,60.5618895 50.3723104,60.9545296 50.746708,61.3323995 C50.4884602,61.5428743 50.2227985,61.7435023 49.9670219,61.9576696 C49.6618199,62.2124549 50.1017062,62.6457129 50.4044369,62.3921585 C50.6626848,62.1755295 50.9320534,61.9724398 51.1952438,61.7595033 C52.3777471,62.9140375 53.619561,64.0057985 54.9379843,64.9990917 C54.4746209,65.3818851 54.006315,65.7572933 53.5466585,66.1437791 C53.2426921,66.3997952 53.6813428,66.8330533 53.9840736,66.5794989 C54.4684427,66.1708578 54.9614614,65.7745251 55.4507731,65.3720383 C56.0166943,65.7843719 56.5974431,66.1733195 57.18437,66.5536511 C56.7914379,66.8736712 56.3886206,67.1813829 56.000631,67.5075572 C55.6966646,67.7635733 56.1353153,68.1968314 56.4368104,67.943277 C56.8556909,67.590024 57.289399,67.2589262 57.7144577,66.91552 C58.1135681,67.1653819 58.5324486,67.3820109 58.941444,67.6171026 C58.7153226,67.7857286 58.4805519,67.9408153 58.2544305,68.1094413 C57.9405791,68.344533 58.2482524,68.8787204 58.5670464,68.6399362 C58.8833691,68.4036136 59.2120482,68.1857538 59.5296066,67.9518929 C60.5020519,68.4897729 61.495503,68.9882658 62.5124312,69.4412173 C62.411109,69.5261458 62.3048444,69.6061508 62.2035222,69.6923101 C61.8995558,69.9483262 62.3394422,70.3815842 62.6409373,70.1267989 C62.8015699,69.9914058 62.9696164,69.8633978 63.1314846,69.7292355 C63.8333257,70.0283312 64.5512301,70.2880399 65.27037,70.544056 C65.0034727,70.808688 64.7242191,71.0597807 64.4610287,71.3281053 C64.181775,71.6112 64.61919,72.0469197 64.8972081,71.7625942 C65.2283584,71.426573 65.5755721,71.1102454 65.9129006,70.7803785 C66.5838508,71.0068543 67.2646861,71.2000972 67.9492282,71.3884168 C67.6254917,71.7379772 67.346238,72.1207705 67.1930192,72.5958773 C67.0706913,72.9737473 67.6675033,73.1349882 67.7885956,72.7595799 C67.9232799,72.3423229 68.2198325,71.9410669 68.584345,71.5644278 C68.8833688,71.6419712 69.1762145,71.7416698 69.4789452,71.811828 C69.8656992,71.9016798 70.0300388,71.3084117 69.6432848,71.2185599 C69.462882,71.1767111 69.2886573,71.1151688 69.1094902,71.0708583 C69.6210433,70.6252918 70.1721369,70.2203433 70.5860748,69.8720137 C71.5609914,69.0498081 72.5606207,68.2571429 73.5812558,67.4915562 C75.367985,66.1523951 77.2263811,64.9153942 79.132967,63.7534749 C79.4715311,63.5479235 79.1613866,63.0149669 78.8215868,63.2217492 C76.5727298,64.5916815 74.3992466,66.07239 72.3184361,67.6835683 C71.2903872,68.481157 70.2833441,69.3070551 69.3022493,70.1624935 C69.02176,70.4062011 68.7350925,70.6462162 68.4583101,70.8911547 C67.7700611,70.7077586 67.0805763,70.5268241 66.4046836,70.3052717 C69.4394049,67.3869343 72.6965406,64.7221512 76.1946253,62.3601565 C76.5208331,62.1398349 76.2131598,61.6056475 75.8820094,61.8284307 C72.2628325,64.2741231 68.8932539,67.036143 65.762153,70.0689491 C65.0590763,69.8227798 64.3522927,69.5815339 63.6652793,69.2959774 C67.1510076,66.4367206 70.806018,63.8027088 74.6401956,61.4234822 C74.9775241,61.2142383 74.6673795,60.6825125 74.3288154,60.8917564 C70.3821949,63.3411413 66.6246268,66.0576199 63.0449901,69.0091902 C62.0354758,68.5673162 61.0494385,68.0811318 60.0819357,67.5555603 C63.462635,65.085251 66.9137655,62.7146403 70.4662182,60.494193 C70.8023111,60.2837182 70.4921665,59.7519924 70.1536023,59.9624672 C66.5060057,62.2432261 62.9609669,64.6766099 59.4950088,67.2220008 C59.0724214,66.9819857 58.6411845,66.7567408 58.2284822,66.5007247 C61.5646986,63.8420959 65.0763752,61.4210205 68.7733972,59.2756548 C69.116904,59.0762576 68.8067594,58.543301 68.4620171,58.743929 C64.6809718,60.9385286 61.0926857,63.4223772 57.6860381,66.1499334 C57.0954042,65.7708326 56.5171267,65.3732691 55.9487343,64.9633972 C59.1935137,62.3170769 62.5359082,59.7950721 65.9858031,57.4158455 C66.3107753,57.1918314 66.0018664,56.6576439 65.6744229,56.8841197 C62.1503899,59.3150419 58.7375641,61.8936656 55.4248248,64.5990666 C54.8156564,64.1448842 54.233672,63.6550072 53.6529232,63.1651302 C57.1991976,60.4129571 60.8999266,57.8786438 64.7489318,55.5683446 C65.0899672,55.3640241 64.7798227,54.8310675 64.4375516,55.0366189 C60.5230577,57.3863051 56.7667251,59.9686214 53.1636114,62.7687976 C52.6520583,62.3220003 52.1689247,61.8444318 51.6808486,61.3705558 C54.2089592,59.3581215 56.8668116,57.5278525 59.6679978,55.9019041 C60.0102689,55.7025069 59.7001243,55.1695503 59.3553819,55.3701783 C56.506006,57.0256671 53.8049064,58.8928615 51.2335485,60.9422211 C50.855444,60.5631204 50.4896958,60.1717111 50.1276545,59.7766094 C52.7706793,57.620166 55.5805149,55.6926601 58.568282,54.0248629 C58.9154956,53.83162 58.6041154,53.2998942 58.2569018,53.4931371 C55.2345369,55.1806279 52.3938104,57.1339816 49.7198947,59.3162727 C49.3689742,58.9199401 49.003226,58.5396085 48.6683688,58.1297365 C48.5880524,58.0300379 48.5163856,57.9278777 48.4373049,57.8281791 C51.360819,55.7049686 54.3732988,53.710997 57.4846295,51.8659579 C57.8256649,51.6628682 57.5155204,51.1311424 57.1720137,51.3342321 C54.0396772,53.1928106 51.0061915,55.2015523 48.0641429,57.3419947 C47.6119002,56.7499574 47.1794278,56.1493042 46.771668,55.5375735 C49.617337,53.414363 52.5050176,51.351464 55.4618938,49.384571 C55.7918086,49.1654803 55.4828997,48.6325237 55.1505137,48.8528452 C52.1837523,50.8258924 49.2874223,52.8961765 46.4331038,55.0255412 C45.9610909,54.2882641 45.5236759,53.5337551 45.109738,52.7693993 C48.0554935,51.0031344 51.0432606,49.3082585 54.0928095,47.7216971 C54.4449657,47.538301 54.1335855,47.0078061 53.7801937,47.1912022 C50.7368229,48.774071 47.755234,50.4652544 44.814421,52.2290576 C44.6315469,51.880728 44.4610292,51.527475 44.2892758,51.174222 C46.9841973,49.5002706 49.6791188,47.8250883 52.3728046,46.1511368 C52.7101331,45.9418929 52.3999886,45.4089363 52.0614244,45.6194111 C49.3800949,47.2859774 46.6987655,48.9525438 44.017436,50.6178793 C43.8469183,50.2523179 43.6862856,49.8806022 43.525653,49.5101173 C46.4726441,47.586304 49.4752389,45.7511116 52.5532074,44.0377731 C52.900421,43.8445302 52.5890408,43.3128044 52.2405916,43.5060473 C49.1848645,45.2083083 46.2032755,47.0299613 43.2748189,48.9390045 C43.0659965,48.4355882 42.8658235,47.9284794 42.6730644,47.4189089 C45.1987037,45.8028072 47.7675903,44.2605563 50.3896093,42.8056956 C50.7368229,42.6124527 50.4254427,42.0807269 50.0782291,42.2739698 C47.4883367,43.7115987 44.9515766,45.2353869 42.4555925,46.8281025 C42.3802187,46.6213202 42.3085518,46.4120763 42.2356493,46.2040632 C45.1505139,44.0426965 48.2099479,42.104113 51.4201295,40.4030829 C51.77105,40.2159942 51.4596698,39.6842684 51.1087493,39.8713571 C47.9344012,41.5539245 44.9083293,43.4691219 42.0218843,45.6021792 C41.7994699,44.9412145 41.5894118,44.2765573 41.3880032,43.6082076 C43.9531829,41.6819326 46.7210069,40.0719851 49.6976533,38.8374459 C50.0596946,38.6872827 49.9002976,38.0915529 49.5333138,38.2441779 C46.5529605,39.4799479 43.7839008,41.0726635 41.2063648,42.979245 C41.0333758,42.3798226 40.866565,41.7779386 40.707168,41.1735929 C43.3946756,39.5759539 46.1538501,38.1100156 48.993341,36.7930096 C49.3529109,36.6256145 49.0402951,36.0951196 48.6819608,36.2612839 C45.8943666,37.5549037 43.1846175,38.9913018 40.544064,40.5532462 C40.4019659,39.9969035 40.266046,39.4380991 40.133833,38.8780639 C42.7558519,37.3284279 45.4458309,35.9043383 48.2124192,34.6193344 C48.5719892,34.4519393 48.2581377,33.9214444 47.8998034,34.0876087 C45.1925255,35.345534 42.5569146,36.7363907 39.9867923,38.2478704 C39.8533437,37.6656799 39.7236019,37.0822586 39.5975671,36.4976064 C41.7154467,35.1596761 43.9148782,33.9657549 46.2020399,32.9232277 C46.5640812,32.7582943 46.2502297,32.2277994 45.8906597,32.391502 C43.6665155,33.4044888 41.5239232,34.5577921 39.4604115,35.8514119 C39.3751527,35.4452325 39.2898938,35.0390531 39.2071062,34.6328737 C42.0552465,33.0918537 44.9021512,31.5508337 47.7502914,30.0110445 C48.0999763,29.8214941 47.7885962,29.2897684 47.4376756,29.4793188 C44.6525527,30.9871059 41.8661942,32.4936622 39.0798357,34.0014494 C38.9809849,33.5103416 38.8833697,33.0180029 38.7882257,32.5268951 C40.7973694,31.4831371 42.8077486,30.44061 44.8168923,29.3980829 C45.1702841,29.2146867 44.8576683,28.6841918 44.5055121,28.8663571 C42.5581502,29.8768822 40.612024,30.8861765 38.6646621,31.8967016 C38.6411851,31.7736169 38.6164723,31.6505323 38.5929953,31.5274476" id="Fill-135"></path>
                <path d="M99.3848723,8.10654785 C101.35511,8.14819502 103.188082,7.35464768 104.432941,5.89924811 C104.671973,5.62009954 104.255442,5.22051188 104.015227,5.50078604 C102.860301,6.85037931 101.214294,7.58314429 99.3848723,7.54374832 C99.0038414,7.53474353 99.0038414,8.09754306 99.3848723,8.10654785" id="Fill-136"></path>
                <path d="M100.367581,8.98444729 C102.098855,8.22949862 103.732729,7.26305228 105.267987,6.0711018 C105.590622,5.82038601 105.286249,5.21250527 104.959961,5.46602235 C103.468533,6.62435731 101.889446,7.57399589 100.205654,8.3093355 C99.8428414,8.46760859 99.9998979,9.14552168 100.367581,8.98444729" id="Fill-137"></path>
                <path d="M102.210054,9.00354886 C103.972445,8.6985374 105.600669,8.00789471 107.063467,6.94774474 C107.40344,6.70051077 107.077795,6.11736111 106.733914,6.36728239 C105.311497,7.39921545 103.752309,8.05895389 102.036811,8.35590338 C101.625195,8.42711751 101.799741,9.07476299 102.210054,9.00354886" id="Fill-138"></path>
                <path d="M103.999154,9.89078552 C105.41174,9.39792888 106.736202,8.7194162 107.963468,7.8432266 C108.304303,7.60013741 107.980316,7.02179885 107.635593,7.2662237 C106.452389,8.11169323 105.191429,8.77150674 103.826792,9.24699987 C103.434119,9.38323667 103.602592,10.028358 103.999154,9.89078552" id="Fill-139"></path>
                <path d="M108.661977,8.80447116 C108.93461,8.68375044 109.207244,8.61257927 109.530996,8.56483152 C109.54029,8.56483152 109.541839,8.57023692 109.551134,8.57023692 C109.709137,8.57023692 109.798982,8.51978647 109.856297,8.45762431 C109.882631,8.43600269 109.890376,8.41438107 109.898121,8.38825494 C109.907416,8.36302972 109.913612,8.342309 109.907416,8.31618287 C109.90122,8.28825494 109.88418,8.26663332 109.862493,8.24050719 C109.842356,8.21708377 109.823767,8.19726395 109.791237,8.18014683 C109.732373,8.1441108 109.656469,8.12969638 109.565075,8.12339008 C109.558879,8.12248918 109.55733,8.11978647 109.551134,8.11978647 C109.548035,8.11978647 109.548035,8.12068737 109.546486,8.12068737 C109.509309,8.11888557 109.484524,8.10447116 109.4427,8.10897566 C108.999671,8.16122791 108.634094,8.25492161 108.271616,8.41528197 C107.879705,8.58915584 108.265419,8.98014683 108.661977,8.80447116" id="Fill-140"></path>
                <path d="M81.6879485,9.00900065 C82.0799931,9.01179353 82.0799931,8.31357374 81.6879485,8.31078086 C80.7760186,8.30379866 80.0442832,7.57765007 79.8726115,6.55824917 C79.7983422,6.11697426 79.2114928,6.30409716 79.2857621,6.74397564 C79.5085701,8.06500749 80.5215549,9.00062202 81.6879485,9.00900065" id="Fill-141"></path>
                <path d="M77.94214,8.22863558 L78.0270772,8.12381327 L78.8906049,8.94223366 C79.1682841,9.20563332 79.4394296,8.62239121 79.1650172,8.36167929 C78.8982275,8.10903063 78.6303488,7.8550381 78.363559,7.60238944 C78.398405,7.32689489 78.1229037,7.05543197 77.9203613,7.30673675 L77.557745,7.75424741 C77.3094672,8.0606511 77.6938622,8.53503928 77.94214,8.22863558" id="Fill-142"></path>
                <path d="M119.278877,17.9988317 C120.330437,17.6231185 121.361728,17.2022746 122.370367,16.7351716 C122.714926,16.5749576 122.413288,16.0886742 122.069921,16.2477599 C121.106588,16.694554 120.124178,17.0962174 119.120308,17.4550066 C118.765019,17.5813726 118.918819,18.1263259 119.278877,17.9988317" id="Fill-143"></path>
                <path d="M65.1618349,22.9880644 C67.971117,22.9448212 70.7742411,22.9943707 73.5773652,23.1385148 C73.9739407,23.1592356 73.9714775,22.7078842 73.5773652,22.6880644 C70.7742411,22.5439203 67.971117,22.4943707 65.1618349,22.5376139 C64.7664909,22.5439203 64.7652593,22.9943707 65.1618349,22.9880644" id="Fill-144"></path>
            </g>
        </g>
    </g>
</svg>